<svg width="753" height="602" viewBox="0 0 753 602" fill="none" xmlns="http://www.w3.org/2000/svg">
<path d="M558.25 547.947C558.879 518.191 434.754 491.436 281.01 488.189C127.266 484.942 2.12269 506.431 1.49419 536.187C0.865697 565.943 124.99 592.698 278.734 595.945C432.478 599.192 557.622 577.703 558.25 547.947Z" fill="#0071F2"/>
<path opacity="0.7" d="M558.25 547.947C558.879 518.191 434.754 491.436 281.01 488.189C127.266 484.942 2.12269 506.431 1.49419 536.187C0.865697 565.943 124.99 592.698 278.734 595.945C432.478 599.192 557.622 577.703 558.25 547.947Z" fill="white"/>
<path d="M58.89 375.2C58.89 375.2 -28.89 292.36 19.34 182.36C32.8978 151.852 54.2887 125.475 81.34 105.91C141.7 61.84 294.44 -25.36 524.21 8.32C548.893 11.8526 572.508 20.7254 593.41 34.32C627.13 56.44 662.88 97.08 647.67 166.71C642.3 191.32 643.51 216.99 652.37 240.57C661.15 263.94 677.77 292.57 708.72 323.52C708.72 323.52 774.72 387.22 710.52 442.37C696.803 454.024 680.588 462.366 663.13 466.75C583.15 487.24 259.66 555.22 58.89 375.2Z" fill="#0071F2"/>
<path opacity="0.7" d="M58.89 375.2C58.89 375.2 -28.89 292.36 19.34 182.36C32.8978 151.852 54.2887 125.475 81.34 105.91C141.7 61.84 294.44 -25.36 524.21 8.32C548.893 11.8526 572.508 20.7254 593.41 34.32C627.13 56.44 662.88 97.08 647.67 166.71C642.3 191.32 643.51 216.99 652.37 240.57C661.15 263.94 677.77 292.57 708.72 323.52C708.72 323.52 774.72 387.22 710.52 442.37C696.803 454.024 680.588 462.366 663.13 466.75C583.15 487.24 259.66 555.22 58.89 375.2Z" fill="white"/>
<path d="M440.68 276.15C440.68 276.15 438.48 275.42 435.02 273.9L435.42 272.99C438.83 274.48 440.97 275.19 440.99 275.2L440.68 276.15ZM429.56 271.33C427.78 270.43 425.99 269.47 424.24 268.47L424.73 267.61C426.47 268.61 428.24 269.54 430.01 270.43L429.56 271.33ZM419.07 265.33C417.37 264.24 415.69 263.1 414.07 261.94L414.65 261.13C416.25 262.28 417.91 263.41 419.6 264.48L419.07 265.33ZM409.27 258.33C407.7 257.06 406.15 255.74 404.69 254.41L405.36 253.67C406.81 254.99 408.36 256.3 409.9 257.55L409.27 258.33ZM400.35 250.2C398.95 248.75 397.59 247.2 396.35 245.72L397.12 245.08C398.38 246.58 399.72 248.08 401.12 249.51L400.35 250.2ZM392.6 241C391.41 239.36 390.28 237.67 389.25 236L390.1 235.48C391.1 237.15 392.23 238.82 393.41 240.48L392.6 241ZM386.31 230.7C385.41 228.91 384.57 227.06 383.82 225.21L384.74 224.83C385.48 226.66 386.31 228.48 387.2 230.25L386.31 230.7ZM381.79 219.52C381.2 217.61 380.69 215.65 380.26 213.69L381.26 213.48C381.68 215.41 382.19 217.34 382.77 219.23L381.79 219.52ZM379.22 207.75C378.96 205.75 378.77 203.75 378.66 201.75L379.66 201.7C379.76 203.7 379.95 205.7 380.21 207.62L379.22 207.75ZM379.56 195.75H378.56C378.61 193.75 378.72 191.75 378.91 189.75L379.91 189.84C379.72 191.74 379.61 193.74 379.56 195.7V195.75ZM380.65 183.87L379.65 183.72C379.96 181.77 380.33 179.77 380.77 177.79L381.77 178.01C381.32 179.92 381 181.89 380.65 183.82V183.87ZM383.19 172.21L382.19 171.95C382.72 170.05 383.31 168.11 383.95 166.18L384.9 166.5C384.3 168.36 383.72 170.28 383.19 172.16V172.21ZM387 160.82L386.06 160.46C386.42 159.54 386.79 158.6 387.17 157.66C387.592 156.726 388.07 155.818 388.6 154.94L389.47 155.44C388.96 156.277 388.502 157.146 388.1 158.04C387.67 159 387.3 159.9 387 160.82ZM392.79 150.52L392 149.92C393.17 148.36 394.47 146.8 395.86 145.27L396.6 145.94C395.18 147.45 393.9 149 392.74 150.52H392.79ZM400.79 141.69L400.11 140.97C401.54 139.61 403.06 138.28 404.64 136.97L405.27 137.74C403.66 139 402.15 140.36 400.73 141.69H400.79ZM410.01 134.13L409.43 133.32C411.03 132.17 412.71 131.04 414.43 129.96L414.96 130.8C413.21 131.87 411.54 133 410 134.13H410.01ZM420 127.75L419.51 126.88C421.23 125.88 423.02 124.98 424.84 124.08L425.28 124.98C423.52 125.87 421.74 126.8 420 127.75ZM430.7 122.46L430.3 121.54C432.11 120.75 433.98 119.99 435.87 119.26L436.22 120.19C434.39 120.91 432.53 121.68 430.74 122.46H430.7ZM441.84 118.16L441.52 117.21C443.39 116.58 445.32 115.96 447.25 115.38L447.54 116.38C445.65 116.92 443.74 117.53 441.88 118.16H441.84ZM453.3 114.74L453.05 113.74L453.38 113.65L453.63 114.65L453.3 114.74Z" fill="#2F2E41"/>
<path d="M627.82 385.81H744.59C746.619 385.81 748.565 386.616 749.999 388.051C751.434 389.485 752.24 391.431 752.24 393.46V422.46C752.24 440.187 745.198 457.188 732.663 469.723C720.128 482.258 703.127 489.3 685.4 489.3H627.82V385.81Z" fill="#0071F2"/>
<path opacity="0.43" d="M679.46 467.74C697.194 467.74 711.57 453.364 711.57 435.63C711.57 417.896 697.194 403.52 679.46 403.52C661.726 403.52 647.35 417.896 647.35 435.63C647.35 453.364 661.726 467.74 679.46 467.74Z" fill="#F1F2F2"/>
<path d="M690.42 432.81C690.422 430.709 689.853 428.648 688.772 426.846C687.692 425.045 686.141 423.571 684.287 422.584C682.433 421.597 680.345 421.133 678.247 421.243C676.149 421.352 674.121 422.031 672.379 423.205C670.638 424.38 669.249 426.007 668.362 427.911C667.475 429.815 667.123 431.925 667.344 434.014C667.565 436.103 668.351 438.093 669.617 439.769C670.883 441.446 672.581 442.746 674.53 443.53V458.69C674.53 459.971 675.039 461.2 675.945 462.105C676.851 463.011 678.079 463.52 679.36 463.52C680.641 463.52 681.87 463.011 682.775 462.105C683.681 461.2 684.19 459.971 684.19 458.69V443.06C686.067 442.086 687.641 440.615 688.74 438.807C689.839 437 690.42 434.925 690.42 432.81Z" fill="white"/>
<path d="M667.28 338.7H701.61C705.853 338.7 709.923 340.386 712.924 343.386C715.924 346.387 717.61 350.457 717.61 354.7V389.43H701.51L701.17 361.64C701.146 359.712 700.364 357.87 698.992 356.515C697.619 355.16 695.769 354.4 693.84 354.4H666.23L667.28 338.7Z" fill="#0071F2"/>
<path d="M648.06 503.7L448.46 498.46L479.52 103.77C479.788 100.322 481.352 97.1029 483.898 94.7613C486.443 92.4198 489.781 91.1295 493.24 91.15L679.78 92.05C681.253 92.056 682.709 92.3667 684.056 92.9625C685.403 93.5582 686.612 94.4262 687.608 95.5119C688.603 96.5976 689.364 97.8775 689.841 99.2711C690.318 100.665 690.501 102.142 690.38 103.61L658.21 494.56C658.011 497.094 656.847 499.454 654.959 501.155C653.07 502.856 650.601 503.767 648.06 503.7Z" fill="#2F2E41"/>
<path opacity="0.2" d="M648.06 503.7L448.46 498.46L479.52 103.77C479.788 100.322 481.352 97.1029 483.898 94.7613C486.443 92.4198 489.781 91.1295 493.24 91.15L679.78 92.05C681.253 92.056 682.709 92.3667 684.056 92.9625C685.403 93.5582 686.612 94.4262 687.608 95.5119C688.603 96.5976 689.364 97.8775 689.841 99.2711C690.318 100.665 690.501 102.142 690.38 103.61L658.21 494.56C658.011 497.094 656.847 499.454 654.959 501.155C653.07 502.856 650.601 503.767 648.06 503.7Z" fill="black"/>
<path d="M628.68 503.7L429.07 498.46L460.13 103.77C460.4 100.323 461.965 97.1051 464.51 94.764C467.055 92.423 470.392 91.1318 473.85 91.15L660.4 92.05C661.873 92.056 663.329 92.3667 664.676 92.9625C666.023 93.5582 667.233 94.4263 668.228 95.5119C669.224 96.5976 669.984 97.8775 670.461 99.2711C670.938 100.665 671.121 102.142 671 103.61L638.83 494.56C638.629 497.093 637.464 499.452 635.576 501.152C633.688 502.852 631.22 503.764 628.68 503.7Z" fill="#2F2E41"/>
<path d="M688.49 179.05L684.15 227.53C682.22 236.53 674.64 234.84 671.97 233.95C671.699 233.861 671.466 233.684 671.308 233.446C671.15 233.208 671.077 232.924 671.1 232.64L671.58 225.81L675.35 172.32C675.388 171.871 675.576 171.448 675.885 171.119C676.194 170.791 676.604 170.576 677.05 170.51C679.229 170.163 681.461 170.397 683.52 171.19C684.831 171.739 685.989 172.601 686.89 173.7C688.104 175.204 688.679 177.126 688.49 179.05Z" fill="#2F2E41"/>
<path opacity="0.2" d="M688.49 179.05L684.15 227.53C682.22 236.53 674.64 234.84 671.97 233.95C671.699 233.861 671.466 233.684 671.308 233.446C671.15 233.208 671.077 232.924 671.1 232.64L671.58 225.81C674.58 225.72 679.37 224.56 679.81 218.24L683.52 171.19C684.831 171.739 685.989 172.601 686.89 173.7C688.104 175.204 688.679 177.126 688.49 179.05Z" fill="black"/>
<path d="M613 96.41H658.15C659.118 96.407 660.075 96.6046 660.962 96.9902C661.85 97.3759 662.647 97.9413 663.305 98.6507C663.963 99.3602 664.466 100.198 664.784 101.112C665.101 102.026 665.226 102.996 665.15 103.96L633.81 493C633.693 494.437 633.034 495.775 631.966 496.743C630.898 497.71 629.501 498.235 628.06 498.21L434.06 494.9L466.92 102.7C467.065 100.977 467.852 99.3723 469.124 98.2019C470.396 97.0316 472.061 96.3814 473.79 96.38H507.7C508.22 96.3812 508.731 96.5139 509.185 96.7656C509.64 97.0174 510.023 97.3801 510.3 97.82L516.18 107.22C516.865 108.602 517.925 109.764 519.239 110.572C520.553 111.38 522.068 111.802 523.61 111.79H596C598.051 111.808 600.059 111.205 601.76 110.06C605.819 107.193 608.834 103.082 610.35 98.35C610.545 97.7974 610.902 97.3166 611.375 96.9704C611.848 96.6243 612.414 96.429 613 96.41Z" fill="#F1F2F2"/>
<path d="M570.18 99.9H538.73C537.266 99.9 536.08 101.086 536.08 102.55V102.56C536.08 104.024 537.266 105.21 538.73 105.21H570.18C571.644 105.21 572.83 104.024 572.83 102.56V102.55C572.83 101.086 571.644 99.9 570.18 99.9Z" fill="#F1F2F2"/>
<path d="M582.75 99.9H578.81C577.346 99.9 576.16 101.086 576.16 102.55V102.56C576.16 104.024 577.346 105.21 578.81 105.21H582.75C584.213 105.21 585.4 104.024 585.4 102.56V102.55C585.4 101.086 584.213 99.9 582.75 99.9Z" fill="#F1F2F2"/>
<path opacity="0.1" d="M615.21 96.41C615.21 96.41 610.52 118.46 596.66 119H519.35C519.35 119 495.55 113.13 492.35 150.45L453.87 495.27L628.06 498.27C628.06 498.27 633.5 496.87 633.81 493.06L665.15 104C665.15 104 665.23 96.45 658.15 96.45L615.21 96.41Z" fill="#0071F2"/>
<path d="M628.75 152.96C639.166 152.96 647.61 144.516 647.61 134.1C647.61 123.684 639.166 115.24 628.75 115.24C618.334 115.24 609.89 123.684 609.89 134.1C609.89 144.516 618.334 152.96 628.75 152.96Z" fill="#2F2E41"/>
<path opacity="0.2" d="M628.75 152.96C639.166 152.96 647.61 144.516 647.61 134.1C647.61 123.684 639.166 115.24 628.75 115.24C618.334 115.24 609.89 123.684 609.89 134.1C609.89 144.516 618.334 152.96 628.75 152.96Z" fill="black"/>
<path d="M509.38 128.38H480.11C479.845 128.38 479.59 128.275 479.403 128.087C479.215 127.9 479.11 127.645 479.11 127.38C479.11 127.115 479.215 126.86 479.403 126.673C479.59 126.485 479.845 126.38 480.11 126.38H509.38C509.645 126.38 509.9 126.485 510.087 126.673C510.275 126.86 510.38 127.115 510.38 127.38C510.38 127.645 510.275 127.9 510.087 128.087C509.9 128.275 509.645 128.38 509.38 128.38Z" fill="#2F2E41"/>
<path d="M507.58 137.46H478.31C478.045 137.46 477.791 137.355 477.603 137.167C477.415 136.98 477.31 136.725 477.31 136.46C477.31 136.195 477.415 135.94 477.603 135.753C477.791 135.565 478.045 135.46 478.31 135.46H507.58C507.845 135.46 508.1 135.565 508.287 135.753C508.475 135.94 508.58 136.195 508.58 136.46C508.58 136.725 508.475 136.98 508.287 137.167C508.1 137.355 507.845 137.46 507.58 137.46Z" fill="#2F2E41"/>
<path d="M507 146.54H477.76C477.495 146.54 477.24 146.435 477.053 146.247C476.865 146.06 476.76 145.805 476.76 145.54C476.76 145.275 476.865 145.02 477.053 144.833C477.24 144.645 477.495 144.54 477.76 144.54H507C507.265 144.54 507.52 144.645 507.707 144.833C507.895 145.02 508 145.275 508 145.54C508 145.805 507.895 146.06 507.707 146.247C507.52 146.435 507.265 146.54 507 146.54Z" fill="#2F2E41"/>
<path opacity="0.1" d="M463.54 395.65L616.28 394.43C620.603 394.393 624.754 392.736 627.915 389.787C631.075 386.837 633.015 382.81 633.35 378.5L646.86 203.39C646.975 201.907 646.784 200.417 646.299 199.012C645.814 197.606 645.044 196.315 644.039 195.22C643.033 194.124 641.813 193.247 640.454 192.644C639.096 192.04 637.627 191.722 636.14 191.71L479.29 190.48C476.562 190.458 473.925 191.466 471.908 193.303C469.891 195.14 468.642 197.671 468.41 200.39L452.65 383.9C452.523 385.402 452.712 386.915 453.203 388.34C453.693 389.766 454.476 391.073 455.501 392.179C456.526 393.285 457.77 394.165 459.155 394.762C460.539 395.36 462.032 395.662 463.54 395.65Z" fill="#0071F2"/>
<path d="M617.11 366.78H471.27C468.034 366.78 465.41 369.404 465.41 372.64C465.41 375.876 468.034 378.5 471.27 378.5H617.11C620.346 378.5 622.97 375.876 622.97 372.64C622.97 369.404 620.346 366.78 617.11 366.78Z" fill="white"/>
<path d="M634.69 261.33L626.55 344.52C626.334 346.758 625.292 348.835 623.629 350.347C621.965 351.859 619.798 352.698 617.55 352.7H475C473.761 352.7 472.536 352.441 471.403 351.94C470.271 351.438 469.255 350.705 468.423 349.788C467.59 348.871 466.959 347.789 466.569 346.613C466.179 345.437 466.04 344.193 466.16 342.96L474.04 261.33L552.2 210.56C554.344 209.168 556.862 208.463 559.417 208.54C561.972 208.617 564.443 209.472 566.5 210.99L634.69 261.33Z" fill="#0071F2"/>
<path opacity="0.2" d="M474.05 261.33H634.69L554.78 291.42C551.974 292.482 548.868 292.428 546.1 291.27L474.05 261.33Z" fill="black"/>
<path d="M551 325.25C551.768 325.001 552.453 324.547 552.982 323.938C553.51 323.328 553.863 322.585 554 321.79C554.111 321.01 554.046 320.214 553.81 319.463C553.573 318.711 553.171 318.022 552.632 317.446C552.094 316.87 551.433 316.423 550.699 316.136C549.965 315.85 549.176 315.731 548.39 315.79C547.086 315.834 545.831 316.297 544.81 317.11C540.52 321.4 544.81 325.26 544.81 325.26L544.31 333.99C544.294 334.394 544.359 334.797 544.503 335.175C544.646 335.553 544.865 335.898 545.145 336.189C545.425 336.481 545.762 336.712 546.134 336.871C546.506 337.029 546.906 337.11 547.31 337.11C548.051 337.101 548.762 336.818 549.307 336.316C549.851 335.814 550.191 335.128 550.26 334.39L551 325.25Z" fill="white"/>
<path opacity="0.24" d="M442.91 388.91L657.7 196.38L651.52 273.19L437.92 448.43L442.91 388.91Z" fill="#F1F2F2"/>
<path opacity="0.24" d="M483.36 495.77L644.49 360.37L637.4 448.43L569.44 497.24L483.36 495.77Z" fill="#F1F2F2"/>
<path opacity="0.21" d="M544.47 237.75H497.39C496.181 237.749 494.985 237.493 493.881 236.998C492.778 236.504 491.791 235.781 490.986 234.879C490.18 233.976 489.575 232.914 489.208 231.761C488.842 230.609 488.723 229.392 488.86 228.19L493.8 185.09C494.06 182.822 495.146 180.729 496.85 179.209C498.554 177.69 500.757 176.85 503.04 176.85H618.51C619.803 176.85 621.082 177.12 622.264 177.642C623.447 178.164 624.508 178.927 625.379 179.882C626.251 180.837 626.913 181.963 627.325 183.189C627.737 184.415 627.888 185.713 627.77 187L623.65 230C623.448 232.126 622.462 234.1 620.882 235.536C619.303 236.973 617.245 237.77 615.11 237.77H559.65C559.225 237.768 558.808 237.877 558.438 238.086C558.068 238.295 557.758 238.596 557.54 238.96L551.54 248.87C551.441 249.038 551.296 249.173 551.121 249.259C550.947 249.346 550.751 249.379 550.558 249.356C550.365 249.333 550.183 249.253 550.034 249.128C549.885 249.003 549.776 248.836 549.72 248.65L546.8 239.48C546.644 238.983 546.334 238.547 545.916 238.237C545.497 237.926 544.991 237.756 544.47 237.75Z" fill="white"/>
<path opacity="0.39" d="M550.7 249.83H550.52C550.236 249.801 549.967 249.692 549.744 249.515C549.52 249.337 549.352 249.1 549.26 248.83L546.34 239.66C546.216 239.263 545.967 238.916 545.63 238.671C545.293 238.426 544.886 238.296 544.47 238.3H497.39C496.112 238.297 494.848 238.024 493.682 237.499C492.517 236.975 491.475 236.209 490.625 235.254C489.776 234.299 489.137 233.175 488.752 231.956C488.367 230.737 488.244 229.45 488.39 228.18L493.33 185.08C493.601 182.69 494.742 180.483 496.537 178.882C498.332 177.281 500.655 176.397 503.06 176.4H618.51C619.876 176.399 621.227 176.684 622.476 177.236C623.725 177.788 624.845 178.595 625.764 179.606C626.683 180.616 627.38 181.807 627.812 183.103C628.244 184.399 628.4 185.77 628.27 187.13L624.15 230C623.941 232.244 622.903 234.33 621.239 235.85C619.575 237.37 617.404 238.215 615.15 238.22H559.65C559.314 238.223 558.983 238.31 558.69 238.475C558.396 238.639 558.148 238.875 557.97 239.16L551.97 249.07C551.844 249.298 551.661 249.488 551.438 249.621C551.215 249.755 550.96 249.827 550.7 249.83ZM503 177.35C500.841 177.35 498.758 178.144 497.147 179.581C495.535 181.017 494.508 182.996 494.26 185.14L489.32 228.25C489.192 229.379 489.304 230.522 489.647 231.605C489.99 232.687 490.558 233.686 491.312 234.535C492.067 235.384 492.992 236.064 494.027 236.532C495.062 237 496.184 237.245 497.32 237.25H544.4C545.029 237.247 545.642 237.445 546.149 237.816C546.657 238.187 547.032 238.71 547.22 239.31L550.14 248.48C550.17 248.573 550.226 248.655 550.301 248.717C550.377 248.779 550.468 248.818 550.565 248.83C550.662 248.841 550.76 248.825 550.848 248.782C550.935 248.74 551.009 248.673 551.06 248.59L557.06 238.68C557.327 238.245 557.7 237.886 558.145 237.636C558.589 237.386 559.09 237.253 559.6 237.25H615.06C617.064 237.244 618.993 236.492 620.472 235.14C621.951 233.789 622.874 231.935 623.06 229.94L627.18 186.94C627.297 185.72 627.158 184.488 626.771 183.325C626.384 182.162 625.758 181.092 624.933 180.185C624.108 179.278 623.102 178.554 621.98 178.059C620.859 177.564 619.646 177.309 618.42 177.31L503 177.35Z" fill="#0071F2"/>
<path d="M517.46 199.42L517.53 199.5C517.868 199.875 518.34 200.102 518.844 200.13C519.348 200.158 519.843 199.986 520.22 199.65C521.79 198.27 524.59 196.54 527.76 197.89C527.76 197.89 530.9 200.51 527.76 203.99L514 217.9C513.827 218.073 513.71 218.293 513.663 218.532C513.615 218.772 513.641 219.02 513.735 219.245C513.829 219.471 513.989 219.663 514.193 219.797C514.397 219.931 514.636 220.002 514.88 220H531C531.53 220 532.039 219.789 532.414 219.414C532.789 219.039 533 218.53 533 218C533 217.47 532.789 216.961 532.414 216.586C532.039 216.211 531.53 216 531 216H522.91C522.873 216.003 522.835 215.995 522.803 215.976C522.771 215.957 522.745 215.929 522.73 215.895C522.714 215.861 522.71 215.823 522.717 215.786C522.724 215.749 522.743 215.716 522.77 215.69L531 207.1C532.001 206.084 532.783 204.874 533.299 203.545C533.815 202.216 534.053 200.795 534 199.37C533.84 196.5 532.37 193.54 527.06 193.2C527.06 193.2 523.96 192.2 517.77 196.61C517.553 196.765 517.372 196.965 517.237 197.195C517.102 197.425 517.018 197.681 516.988 197.946C516.959 198.211 516.986 198.479 517.067 198.733C517.149 198.987 517.282 199.221 517.46 199.42Z" fill="white"/>
<path d="M545.8 197.2H555.35C555.567 197.2 555.783 197.157 555.984 197.073C556.185 196.99 556.367 196.867 556.52 196.713C556.674 196.559 556.795 196.376 556.877 196.174C556.96 195.973 557.001 195.758 557 195.54C557 195.102 556.826 194.683 556.517 194.373C556.207 194.064 555.788 193.89 555.35 193.89H541.46C541.285 193.892 541.117 193.958 540.987 194.076C540.858 194.194 540.777 194.356 540.76 194.53L539.76 205.98C539.732 206.305 539.772 206.633 539.878 206.942C539.983 207.251 540.152 207.535 540.373 207.776C540.594 208.017 540.862 208.209 541.161 208.34C541.46 208.472 541.783 208.54 542.11 208.54C542.457 208.532 542.798 208.45 543.11 208.3C544.32 207.73 547.68 206.46 550.33 208.54C551.021 209.163 551.453 210.022 551.54 210.948C551.627 211.874 551.363 212.799 550.8 213.54C550.102 214.594 549.103 215.414 547.933 215.892C546.763 216.37 545.476 216.484 544.24 216.22C542.987 215.937 541.822 215.35 540.85 214.51C540.462 214.19 539.968 214.027 539.466 214.055C538.963 214.083 538.49 214.299 538.14 214.66C537.955 214.883 537.82 215.143 537.746 215.423C537.671 215.702 537.658 215.995 537.707 216.28C537.757 216.565 537.868 216.836 538.032 217.075C538.197 217.313 538.411 217.513 538.66 217.66C542.29 219.66 549.78 222.44 554.15 215.5C554.943 214.204 555.413 212.736 555.52 211.22C555.6 209.975 555.372 208.73 554.858 207.594C554.344 206.457 553.559 205.464 552.572 204.702C551.585 203.94 550.425 203.432 549.196 203.222C547.966 203.012 546.704 203.108 545.52 203.5C545.12 203.642 544.732 203.816 544.36 204.02L544.99 197.86C544.994 197.761 545.02 197.665 545.064 197.577C545.108 197.489 545.171 197.411 545.247 197.349C545.324 197.286 545.412 197.241 545.508 197.215C545.603 197.19 545.703 197.184 545.8 197.2Z" fill="white"/>
<path d="M571.15 215.82L574.58 215.87C575.11 215.87 575.619 216.081 575.994 216.456C576.369 216.831 576.58 217.34 576.58 217.87C576.58 218.4 576.369 218.909 575.994 219.284C575.619 219.659 575.11 219.87 574.58 219.87H562.27C562.027 219.871 561.787 219.825 561.563 219.733C561.338 219.641 561.134 219.506 560.962 219.335C560.79 219.164 560.654 218.96 560.561 218.736C560.468 218.513 560.42 218.272 560.42 218.03C560.42 217.539 560.615 217.069 560.962 216.722C561.309 216.375 561.779 216.18 562.27 216.18H566.55L568.49 199.44L565.39 201.74C565.157 201.914 564.891 202.038 564.608 202.105C564.326 202.173 564.032 202.182 563.746 202.133C563.46 202.083 563.187 201.976 562.943 201.817C562.7 201.658 562.491 201.452 562.33 201.21C562.169 200.975 562.056 200.711 561.999 200.432C561.941 200.153 561.94 199.865 561.995 199.586C562.05 199.307 562.16 199.041 562.319 198.805C562.477 198.568 562.682 198.366 562.92 198.21L569.92 193.45C570.328 193.177 570.809 193.031 571.3 193.03C571.651 193.03 571.999 193.105 572.319 193.25C572.639 193.395 572.925 193.606 573.157 193.87C573.389 194.134 573.562 194.445 573.664 194.781C573.766 195.117 573.795 195.472 573.75 195.82L571.15 215.82Z" fill="white"/>
<path d="M593.25 215.87L596.68 215.93C597.21 215.93 597.719 216.141 598.094 216.516C598.469 216.891 598.68 217.4 598.68 217.93C598.68 218.46 598.469 218.969 598.094 219.344C597.719 219.719 597.21 219.93 596.68 219.93H584.37C583.879 219.93 583.409 219.735 583.062 219.388C582.715 219.041 582.52 218.571 582.52 218.08C582.52 217.838 582.568 217.597 582.661 217.374C582.754 217.15 582.891 216.946 583.062 216.775C583.234 216.604 583.438 216.469 583.663 216.377C583.887 216.285 584.128 216.239 584.37 216.24H588.65L590.59 199.5L587.49 201.8C587.259 201.964 586.997 202.081 586.721 202.143C586.444 202.205 586.158 202.211 585.879 202.162C585.6 202.113 585.334 202.009 585.095 201.855C584.857 201.702 584.651 201.503 584.49 201.27C584.327 201.036 584.213 200.772 584.154 200.494C584.094 200.215 584.092 199.927 584.146 199.647C584.2 199.368 584.31 199.102 584.468 198.865C584.627 198.628 584.832 198.426 585.07 198.27L592.07 193.51C592.476 193.232 592.958 193.086 593.45 193.09C593.801 193.09 594.149 193.165 594.469 193.31C594.789 193.455 595.075 193.666 595.307 193.93C595.539 194.194 595.712 194.505 595.814 194.841C595.916 195.177 595.946 195.532 595.9 195.88L593.25 215.87Z" fill="white"/>
<path d="M625.87 152.96C636.286 152.96 644.73 144.516 644.73 134.1C644.73 123.684 636.286 115.24 625.87 115.24C615.454 115.24 607.01 123.684 607.01 134.1C607.01 144.516 615.454 152.96 625.87 152.96Z" fill="#2F2E41"/>
<path d="M625.92 136.46C630.211 136.46 633.69 133.133 633.69 129.03C633.69 124.927 630.211 121.6 625.92 121.6C621.629 121.6 618.15 124.927 618.15 129.03C618.15 133.133 621.629 136.46 625.92 136.46Z" fill="white"/>
<path d="M615.21 149.66C615.21 149.66 615.89 142.1 621.06 139.13C622.37 138.368 623.875 138.006 625.389 138.088C626.902 138.17 628.359 138.692 629.58 139.59C631.73 141.22 633.95 144.48 634.22 151.01C634.22 151 624.27 156 615.21 149.66Z" fill="white"/>
<path d="M680 301.71C678.18 301.35 677.1 301.24 677.09 301.24L677.19 300.24C677.19 300.24 678.33 300.36 680.19 300.73L680 301.71Z" fill="#2F2E41"/>
<path d="M732 367.88C731.92 365.94 731.79 364.03 731.61 362.17L732.61 362.08C732.79 363.95 732.92 365.88 733 367.83L732 367.88ZM730.89 356.51C730.59 354.61 730.22 352.72 729.8 350.9L730.8 350.68C731.22 352.52 731.59 354.43 731.89 356.35L730.89 356.51ZM728.33 345.39C727.77 343.56 727.13 341.75 726.44 340.01L727.37 339.64C728.07 341.4 728.71 343.24 729.28 345.09L728.33 345.39ZM724.1 334.8C723.25 333.1 722.31 331.43 721.32 329.8L722.17 329.27C723.17 330.89 724.17 332.59 725 334.33L724.1 334.8ZM718.1 325.13C716.95 323.63 715.72 322.13 714.44 320.77L715.17 320.09C716.48 321.5 717.73 323 718.89 324.53L718.1 325.13ZM710.38 316.77C708.97 315.51 707.49 314.3 705.96 313.17L706.55 312.37C708.11 313.52 709.62 314.75 711.04 316.02L710.38 316.77ZM701.17 310C699.56 309 697.87 308.1 696.17 307.26L696.62 306.36C698.35 307.22 700.06 308.16 701.7 309.15L701.17 310ZM690.94 304.95C689.17 304.26 687.35 303.63 685.54 303.09L685.82 302.09C687.66 302.64 689.5 303.28 691.3 303.98L690.94 304.95Z" fill="#2F2E41"/>
<path d="M733 376.67H732C732 375.67 732 374.67 732.06 373.67H733.06C733 374.65 733 375.65 733 376.67Z" fill="#2F2E41"/>
<path d="M593.09 90.56L592.86 89.56C592.86 89.56 595.16 89.03 598.69 88.09L598.95 89.09C595.4 90 593.11 90.55 593.09 90.56ZM604.76 87.47L604.48 86.47C606.43 85.9 608.36 85.32 610.23 84.74L610.52 85.74C608.65 86.32 606.71 86.9 604.76 87.47ZM616.25 83.86L615.92 82.92C617.92 82.24 619.79 81.56 621.57 80.92L621.92 81.85C620.13 82.5 618.22 83.19 616.25 83.86ZM627.52 79.57L627.12 78.66C629.12 77.82 630.9 76.97 632.55 76.14L633 77.04C631.34 77.88 629.49 78.73 627.52 79.57ZM638.27 74.06L637.73 73.22C639.091 72.3633 640.381 71.4003 641.59 70.34L642.25 71.09C641.006 72.1857 639.675 73.179 638.27 74.06Z" fill="#2F2E41"/>
<path d="M646.6 59.11L678.48 65.32L653.23 66.56L660.26 80.39L686.62 66.84L642.6 48.76L646.6 59.11Z" fill="#0071F2"/>
<path d="M646.6 59.11L642.6 69.32H654.63L653.23 66.56L678.48 65.32L646.6 59.11Z" fill="#0071F2"/>
<path opacity="0.2" d="M646.6 59.11L642.6 69.32H654.63L653.23 66.56L678.48 65.32L646.6 59.11Z" fill="black"/>
<path d="M458.5 415.45C458.5 415.45 487.08 406.91 497.8 420.81C497.8 420.81 521.63 455.75 529.57 483.55C529.57 483.55 558.57 544.45 471.2 546.96L458.5 415.45Z" fill="#BCBEC0"/>
<path d="M415.59 428.48C415.59 428.48 470.73 403.34 483.02 421.62L490.45 436.77C482.825 435.172 475.083 434.199 467.3 433.86L410.16 430.77L415.59 428.48Z" fill="#D1D3D4"/>
<path d="M432.78 547H468.78C468.78 547 513.66 540.67 509.28 498.63C509.32 498.59 503.51 538.82 432.78 547Z" fill="#D1D3D4"/>
<path d="M490.45 436.77C490.45 436.77 499.3 440.06 502.8 457.28L508.49 482.37C508.49 482.37 522.83 535.37 432.78 546.96H249.78C249.78 546.96 304.61 535.76 285.36 480.18L269.64 445.18L394.27 430.91L410.2 430.74C410.2 430.74 476.45 433.05 490.45 436.77Z" fill="#A7A9AC"/>
<path d="M435.2 495.11C433.415 496.847 431.142 497.999 428.686 498.412C426.229 498.825 423.705 498.479 421.45 497.42L402.13 482.86C400.692 481.499 399.652 479.771 399.123 477.862C398.595 475.954 398.597 473.937 399.13 472.03L394.23 465.5L402.94 457.34L406.15 460.49C409.632 465.666 413.892 470.273 418.78 474.15L418.87 474.22C424.797 479.041 431.177 483.277 437.92 486.87C442.68 489.8 435.2 495.11 435.2 495.11Z" fill="#F9B499"/>
<path d="M449.49 498.59L442.68 504.5C433.97 510.76 419.68 500.5 419.68 500.5L423.22 507.17L420.22 508.67L402.53 487.3C400.361 485.477 398.852 482.993 398.234 480.228C397.616 477.463 397.924 474.572 399.11 472C398.577 473.907 398.575 475.924 399.103 477.832C399.632 479.741 400.672 481.469 402.11 482.83L421.43 497.39C423.685 498.449 426.209 498.795 428.666 498.382C431.122 497.969 433.395 496.817 435.18 495.08C435.18 495.08 442.66 489.77 437.9 486.78C431.157 483.187 424.777 478.951 418.85 474.13C420.9 475.61 445.66 489.5 445.66 489.5C454.66 494.7 449.49 498.59 449.49 498.59Z" fill="#0071F2"/>
<path opacity="0.2" d="M249.74 547C249.74 547 269.16 542.5 279.84 529.33C279.84 529.33 343.06 520.92 386.68 523.7L491.22 526.12C491.22 526.12 473.4 542.86 432.78 547H249.74Z" fill="black"/>
<path d="M136.87 336.94L358.3 333.49C358.3 333.49 370.45 331.82 371.88 339.72L395.59 436.48L257.59 446.04L159.79 426.46L136.87 336.94Z" fill="#D1D3D4"/>
<path d="M215.57 318.93L242.93 312.15L249.74 318.93L258.74 395.3C258.74 395.3 263.92 408.71 263.95 409.25C263.98 409.79 246.41 412.76 246.38 412.25C246.35 411.74 234.59 394.08 234.59 394.08L221 344.15L215.57 318.93Z" fill="#E6E7E8"/>
<path d="M232.04 298.82C243.991 298.82 253.68 284.381 253.68 266.57C253.68 248.759 243.991 234.32 232.04 234.32C220.089 234.32 210.4 248.759 210.4 266.57C210.4 284.381 220.089 298.82 232.04 298.82Z" fill="#F9B499"/>
<path d="M210.67 276.23C213.376 276.23 215.57 273.244 215.57 269.56C215.57 265.876 213.376 262.89 210.67 262.89C207.964 262.89 205.77 265.876 205.77 269.56C205.77 273.244 207.964 276.23 210.67 276.23Z" fill="#F7A48B"/>
<path d="M190.56 316C190.56 316 170.38 302.87 183.03 285.57C183.03 285.57 199.85 266.51 203.21 255.78C203.21 255.78 209.46 227.59 234.93 233.04C234.93 233.04 245.18 232.88 257.99 242.33C257.99 242.33 263.92 246.01 257.99 248.1C257.99 248.1 264.56 265.39 252.06 294.54L242.93 312.16L233.48 306.55L233.65 298.73C233.65 298.73 246.46 298 251.91 279.38C251.91 279.38 256.58 264.38 250.59 249.97C250.59 249.97 241.01 256.57 231.24 262.9C231.24 262.9 213.31 276.05 206.66 265.76C206.087 267.104 205.832 268.561 205.913 270.02C205.995 271.478 206.411 272.898 207.13 274.17C207.596 274.858 208.235 275.412 208.983 275.775C209.731 276.139 210.561 276.299 211.39 276.24V306.7L190.56 316Z" fill="#2F2E41"/>
<path d="M211.39 276.23V306.7C211.39 306.7 226.48 334.98 236.49 336.89C236.925 336.965 237.371 336.954 237.802 336.856C238.233 336.758 238.64 336.576 239 336.32C241.51 334.58 246.82 328.79 242.94 312.15L233.49 306.54L233.66 298.72C233.66 298.72 217 300.85 211.39 276.23Z" fill="#F9B499"/>
<path d="M233.65 298.72L233.48 306.54C233.48 306.54 215.4 303.54 215.07 286.6C215.07 286.6 220.84 299.23 233.65 298.72Z" fill="#F7A48B"/>
<path d="M211.38 306.7L190.56 316C190.56 316 184.63 318.83 180.07 331.33C180.07 331.33 146.67 384.9 165.65 394.51C165.65 394.51 175.26 402.92 207.22 391.39L211.38 408C211.38 408 233.51 401.46 246.38 399.83C246.38 399.83 245.66 371.24 237.97 356.34C237.97 356.34 223.22 325.57 220.97 322.21L211.38 306.7Z" fill="#0071F2"/>
<path opacity="0.2" d="M207.94 312.34C208.08 316.74 208.183 321.143 208.25 325.55C208.317 329.957 208.363 334.36 208.39 338.76L208.03 338.32C211.63 339.03 215.24 339.71 218.84 340.44L219.59 340.59L219.15 341.21L213.71 348.87V348.32C216.41 351.41 219.05 354.54 221.71 357.67C224.37 360.8 226.98 363.94 229.59 367.11C226.79 364.11 224 361.11 221.26 358.06C218.52 355.01 215.74 351.99 213.04 348.91L212.81 348.65L213.01 348.36L218.38 340.64L218.68 341.41C215.07 340.7 211.48 339.94 207.88 339.21L207.51 339.13V338.76C207.51 334.36 207.58 329.95 207.65 325.55C207.72 321.15 207.79 316.74 207.94 312.34Z" fill="black"/>
<path d="M249.74 315.99L257.39 336.94L253.56 341.41L257.39 346.69L253.68 360.63" stroke="#ED1C24" stroke-width="0.5" stroke-miterlimit="10"/>
<path d="M281 352L276.69 381L275.19 391.14C275.19 391.14 274.97 391.14 274.61 391.14C273.1 391.14 268.96 390.26 267.19 381.9C266.281 377.514 265.048 373.203 263.5 369L262 365C262 365 262.88 384.18 271.29 392.83L254.88 395.35C254.88 395.35 248.88 320.9 242.95 312.2C242.95 312.2 257.95 312.86 264.17 318.63C264.15 318.58 271.71 327.47 281 352Z" fill="#0071F2"/>
<path opacity="0.2" d="M276.71 381L275.21 391.14C275.21 391.14 274.99 391.14 274.63 391.14C273.12 391.14 268.98 390.26 267.21 381.9C266.295 377.514 265.055 373.202 263.5 369L262 365C261.984 361.351 262.907 357.759 264.68 354.57C264.68 354.57 270.12 377.29 276.71 381Z" fill="black"/>
<path opacity="0.2" d="M259.3 320.84C259.124 322.273 259.097 323.721 259.22 325.16C259.321 326.589 259.538 328.007 259.87 329.4C260.511 332.192 261.492 334.896 262.79 337.45C264.079 340.102 264.959 342.934 265.4 345.85C265.613 347.306 265.677 348.781 265.59 350.25C265.484 351.71 265.171 353.148 264.66 354.52C265.27 351.706 265.27 348.794 264.66 345.98C264.084 343.179 263.16 340.462 261.91 337.89C260.577 335.262 259.641 332.452 259.13 329.55C258.566 326.668 258.624 323.698 259.3 320.84Z" fill="black"/>
<path opacity="0.2" d="M207.22 391.38L211.38 408L232 402.3V394.74C231.963 391.66 232.851 388.639 234.55 386.07L232 387.51C223.23 391.76 221.51 387.51 221.51 387.51L213.69 390.29C210.27 390.69 212.69 385.87 212.69 385.87L192.83 391.16C165.14 397.04 159.83 382.16 159.83 382.16C159.83 382.16 156.6 400.46 184.47 397.05C184.46 397.1 189.47 397.08 207.22 391.38Z" fill="black"/>
<path opacity="0.2" d="M198.48 358.19C198.48 358.19 201.29 353.37 201.29 350.36L210.4 376.24H204.4L198.48 358.19Z" fill="black"/>
<path opacity="0.2" d="M200.48 328.69C201.345 332.409 201.91 336.191 202.17 340C202.3 341.9 202.37 343.82 202.32 345.74C202.316 347.66 202.105 349.575 201.69 351.45C201.75 349.54 201.63 347.65 201.54 345.75C201.45 343.85 201.32 341.96 201.17 340.07C200.91 336.31 200.6 332.52 200.48 328.69Z" fill="black"/>
<path d="M214.33 376.58L218.81 377.86C219.378 378.023 219.974 378.068 220.56 377.992C221.147 377.916 221.712 377.722 222.22 377.42L234.91 369.9C236.371 369.028 238.049 368.587 239.75 368.63L261.97 369.16C261.97 369.16 264.52 373.59 255.15 372.84C255.15 372.84 262.73 379.26 260.62 380.72C260.62 380.72 259.25 383.36 254.42 377.5C255.718 379.003 256.734 380.727 257.42 382.59C257.492 382.878 257.487 383.18 257.403 383.465C257.32 383.75 257.162 384.008 256.946 384.211C256.73 384.415 256.464 384.558 256.175 384.624C255.885 384.691 255.583 384.679 255.3 384.59C253.95 384.09 252.02 382.35 249.73 377.32C249.73 377.32 252.21 384.43 249.29 384.68C249.29 384.68 247.54 385.08 246.37 378.79C246.37 378.79 244.16 377.62 240.8 381.28C240.8 381.28 226.43 394.12 221.54 387.48L213.72 390.26C213.72 390.26 210.39 391.14 212.72 385.84L213.09 377.44C213.106 377.298 213.152 377.161 213.225 377.038C213.298 376.915 213.397 376.809 213.514 376.728C213.632 376.646 213.765 376.591 213.906 376.565C214.047 376.54 214.191 376.545 214.33 376.58Z" fill="#F9B499"/>
<path d="M220.46 378C220.785 378.463 220.959 379.015 220.959 379.58C220.959 380.145 220.785 380.697 220.46 381.16C220.135 380.697 219.961 380.145 219.961 379.58C219.961 379.015 220.135 378.463 220.46 378Z" fill="#F7A48B"/>
<path d="M228.81 381.16C230.35 380.787 231.799 380.107 233.07 379.16C233.682 378.684 234.245 378.148 234.75 377.56C235.3 377.01 235.59 376.31 236.28 375.63C236.944 375.001 237.792 374.601 238.7 374.49C239.597 374.387 240.503 374.58 241.28 375.04C242.773 375.852 243.884 377.222 244.37 378.85C243.586 377.475 242.385 376.386 240.94 375.74C240.292 375.413 239.558 375.297 238.841 375.409C238.123 375.52 237.459 375.852 236.94 376.36C236.44 376.79 236.03 377.61 235.42 378.19C234.847 378.809 234.194 379.35 233.48 379.8C232.081 380.68 230.463 381.151 228.81 381.16Z" fill="#F7A48B"/>
<path d="M240.22 371.06C241.238 371.024 242.254 371.169 243.22 371.49C244.189 371.785 245.112 372.216 245.96 372.77C246.39 373.04 246.79 373.36 247.19 373.67C247.566 374.014 247.92 374.382 248.25 374.77C248.909 375.531 249.423 376.405 249.77 377.35C249.06 376.64 248.43 375.93 247.69 375.35C246.984 374.719 246.224 374.15 245.42 373.65C243.787 372.598 242.043 371.73 240.22 371.06Z" fill="#F7A48B"/>
<path d="M244.31 369.74C245.421 369.84 246.511 370.11 247.54 370.54C248.586 370.956 249.574 371.504 250.48 372.17C251.396 372.836 252.211 373.631 252.9 374.53C253.587 375.428 254.102 376.445 254.42 377.53C253.77 376.666 253.065 375.844 252.31 375.07C251.565 374.314 250.755 373.625 249.89 373.01C248.138 371.745 246.27 370.65 244.31 369.74Z" fill="#F7A48B"/>
<path d="M255.15 372.84C254.339 372.07 253.439 371.399 252.47 370.84C252.006 370.579 251.517 370.364 251.01 370.2C250.5 370 249.95 369.89 249.36 369.7C249.934 369.471 250.554 369.379 251.17 369.43C251.815 369.481 252.44 369.675 253 370C253.546 370.301 254.028 370.705 254.42 371.19C254.798 371.67 255.049 372.238 255.15 372.84Z" fill="#F7A48B"/>
<path d="M211.38 408C211.38 408 212.24 450 239.97 451C244.051 451.087 248.101 450.271 251.83 448.61L326.17 416.45C326.73 416.26 327.43 416.77 327.85 417.45C328.7 418.77 330.58 420.45 335.02 419C335.284 418.922 335.565 418.917 335.831 418.988C336.098 419.058 336.339 419.201 336.53 419.4L386 471.22L422.14 451.89C422.14 451.89 368.14 397.89 350.92 386.75C350.92 386.75 343.5 379.81 334.51 382.21L246.4 399.79C234.496 401.426 222.771 404.174 211.38 408Z" fill="#2F2E41"/>
<path opacity="0.2" d="M327 402.09C327.35 403.939 327.517 405.818 327.5 407.7C327.522 409.582 327.355 411.462 327 413.31C326.64 411.462 326.473 409.582 326.5 407.7C326.478 405.818 326.645 403.938 327 402.09Z" fill="black"/>
<path opacity="0.2" d="M340.61 407.7C340.196 409.342 339.606 410.935 338.85 412.45C338.125 413.98 337.233 415.426 336.19 416.76C336.607 415.109 337.214 413.511 338 412C338.708 410.474 339.583 409.032 340.61 407.7Z" fill="black"/>
<path d="M380.2 515.15C378.2 517.15 336.2 526.08 336.2 526.08L313.94 452.48C313.838 452.092 313.622 451.744 313.32 451.48C311.779 450.218 310.642 448.532 310.05 446.63C309.926 446.22 309.673 445.861 309.329 445.605C308.985 445.349 308.568 445.211 308.14 445.21L257.63 445.99L326.18 416.33C326.528 416.196 326.913 416.192 327.264 416.319C327.615 416.445 327.908 416.694 328.09 417.02C328.09 417.02 329.03 420.42 335.03 418.85C335.03 418.85 335.73 418.4 336.54 419.25C336.54 419.25 344.74 429.53 357.89 460.95L380.2 515.15Z" fill="#2F2E41"/>
<path opacity="0.2" d="M313.31 451.53C313.31 451.53 312.72 415.94 328.54 424.05L348.93 441.1C348.93 441.1 337.3 417.19 335 418.9C335 418.9 329.16 420.84 328.06 417.07C328.06 417.07 327.72 415.7 326.15 416.38L257.62 446L308.13 445.22C308.587 445.297 309.014 445.497 309.367 445.798C309.719 446.1 309.983 446.491 310.13 446.93C310.13 446.93 311.38 450.16 313.31 451.53Z" fill="black"/>
<path d="M89.62 457.77H105.64" stroke="#ED1C24" stroke-width="0.5" stroke-miterlimit="10"/>
<path d="M89.0601 493.94H105.08" stroke="#ED1C24" stroke-width="0.5" stroke-miterlimit="10"/>
<path d="M89.62 531.66H105.64" stroke="#ED1C24" stroke-width="0.5" stroke-miterlimit="10"/>
<path d="M276.71 395.08L283.02 351.5L340.61 341.39L333.86 386.38L276.71 395.08Z" fill="#0071F2"/>
<path opacity="0.2" d="M276.71 395.08L283.02 351.5L340.61 341.39L333.86 386.38L276.71 395.08Z" fill="white"/>
<path d="M244.37 399.95L276.71 395.08L283.02 351.5L280.02 352.2L274.16 392.34L244.37 396.91V399.95Z" fill="#0071F2"/>
<path opacity="0.3" d="M244.37 399.95L276.71 395.08L283.02 351.5L280.02 352.2L274.16 392.34L244.37 396.91V399.95Z" fill="white"/>
<path opacity="0.2" d="M312.896 366.345C313.333 363.434 312.239 360.857 310.453 360.589C308.667 360.321 306.865 362.464 306.428 365.375C305.992 368.286 307.086 370.863 308.872 371.131C310.658 371.399 312.459 369.256 312.896 366.345Z" fill="white"/>
<path d="M149 433.86C149 433.86 167.32 429.15 179.43 424.81C179.43 424.81 226.62 402.45 238.73 423.25C238.73 423.25 255.11 450.89 263.73 496.25C263.73 496.25 269.73 540.17 222.94 546.85C220.76 547.16 81.33 546.85 81.33 546.85L85.91 441.65C85.91 441.65 89.1899 381.41 94.7599 350.39C94.7599 350.39 93.48 338.65 107.83 335.87L122.41 334.37L149 433.86Z" fill="#D1D3D4"/>
<path d="M122.38 334.34C122.38 334.34 136.95 328.55 143.16 347.2L169.21 428.2L149 433.86L122.38 334.34Z" fill="#BCBEC0"/>
<path d="M220.76 414.44C220.76 414.44 244.88 408.23 252.92 418.44C266.226 437.12 276.921 457.528 284.71 479.1C284.71 479.1 308.78 533.51 249.43 547.01L222.91 546.8C222.91 546.8 268.12 535.8 263.7 496.2C263.7 496.2 255.98 455.28 239.76 425.06C239.76 425.08 235.55 414.87 220.76 414.44Z" fill="#BCBEC0"/>
<path d="M377.22 561.19C377.185 561.361 377.09 561.514 376.953 561.622C376.816 561.73 376.645 561.786 376.47 561.78C359.98 561.32 347.61 535.46 347.61 535.46C345.42 531.3 347.43 529.46 347.61 529.29L348.93 523.29L361.93 520.29L362.93 527.65C362.47 537.27 375.52 556.72 375.52 556.72C375.868 557.238 376.185 557.775 376.47 558.33C377.034 559.172 377.298 560.18 377.22 561.19Z" fill="#F9B499"/>
<path d="M385 572.74H373.78C369.262 572.746 364.815 571.609 360.855 569.434C356.894 567.259 353.549 564.117 351.13 560.3C350.28 558.95 349.84 558.06 349.84 558.06C348.34 553.45 346.6 555.59 346.6 555.59V565H342.71L342.81 543C341.92 531.66 347.28 529.39 347.6 529.27C347.43 529.42 345.42 531.27 347.6 535.44C347.6 535.44 359.97 561.3 376.46 561.76C376.634 561.766 376.806 561.71 376.943 561.602C377.08 561.494 377.175 561.341 377.21 561.17C377.287 560.172 377.03 559.176 376.48 558.34L386.28 570C386.475 570.246 386.598 570.542 386.635 570.853C386.671 571.165 386.62 571.481 386.487 571.766C386.354 572.05 386.145 572.292 385.882 572.464C385.619 572.636 385.314 572.732 385 572.74Z" fill="#0071F2"/>
<path d="M138.23 448.52H55.9V568.06H138.23V448.52Z" fill="#0071F2"/>
<path opacity="0.2" d="M132.63 451.53H60.84V561.14H132.63V451.53Z" stroke="black" stroke-miterlimit="10"/>
<path opacity="0.2" d="M60.84 488.86H132.63" stroke="black" stroke-miterlimit="10"/>
<path opacity="0.2" d="M60.84 526.15H132.63" stroke="black" stroke-miterlimit="10"/>
<path d="M55.9 448.52H32.99V568.06H55.9V448.52Z" fill="#0071F2"/>
<path opacity="0.2" d="M55.9 448.52H32.99V568.06H55.9V448.52Z" fill="black"/>
<path d="M143.79 441.43H51.21V448.52H143.79V441.43Z" fill="#0071F2"/>
<path opacity="0.2" d="M143.79 441.43H51.21V448.52H143.79V441.43Z" fill="white"/>
<path d="M51.2 441.43H26.96V448.52H51.2V441.43Z" fill="#0071F2"/>
<path opacity="0.3" d="M51.2 441.43H26.96V448.52H51.2V441.43Z" fill="white"/>
<path d="M86.82 432.79H28.33V441.43H86.82V432.79Z" fill="#E6E7E8"/>
<path d="M91.82 424.76H36.21V432.79H91.82V424.76Z" fill="#2F2E41"/>
<path d="M84.84 417.49H31.96V424.76H84.84V417.49Z" fill="#0071F2"/>
<path d="M22.13 167.33V242.15C22.1326 243.343 22.6076 244.486 23.4509 245.329C24.2943 246.172 25.4373 246.647 26.63 246.65H150.77C151.963 246.65 153.108 246.176 153.952 245.332C154.796 244.488 155.27 243.343 155.27 242.15V167.33C155.27 166.137 154.796 164.992 153.952 164.148C153.108 163.304 151.963 162.83 150.77 162.83H26.63C25.4373 162.833 24.2943 163.308 23.4509 164.151C22.6076 164.994 22.1326 166.137 22.13 167.33Z" fill="#0071F2"/>
<path d="M121.99 197.7H145.13V177.29H121.99V197.7Z" fill="white"/>
<path d="M91.5499 197.7H114.69V177.29H91.5499V197.7Z" fill="white"/>
<path d="M62.84 197.7H85.98V177.29H62.84V197.7Z" fill="white"/>
<path d="M33.13 197.7H56.27V177.29H33.13V197.7Z" fill="white"/>
<path d="M39.12 195V193.79L40.66 192.3C44.35 188.79 46.02 186.92 46.04 184.74C46.0802 184.355 46.0333 183.966 45.9026 183.601C45.772 183.237 45.5611 182.907 45.2854 182.635C45.0098 182.363 44.6765 182.157 44.3103 182.031C43.9441 181.906 43.5544 181.864 43.17 181.91C42.0354 181.953 40.9507 182.388 40.1 183.14L39.48 181.76C40.6271 180.803 42.0759 180.282 43.57 180.29C44.1451 180.239 44.7245 180.31 45.2698 180.5C45.8151 180.689 46.3139 180.993 46.7328 181.39C47.1518 181.787 47.4815 182.269 47.7 182.804C47.9185 183.338 48.0207 183.913 48 184.49C48 187.16 46.07 189.32 43 192.26L41.84 193.33H48.34V195H39.12Z" fill="#2F2E41"/>
<path d="M79.7601 182.15H74.2401L73.6801 185.87C74.0702 185.808 74.4649 185.777 74.8601 185.78C75.9512 185.755 77.0289 186.025 77.9801 186.56C78.6296 186.932 79.1654 187.474 79.5301 188.128C79.8948 188.781 80.0746 189.522 80.0501 190.27C80.0501 193.1 77.8001 195.21 74.6601 195.21C73.4019 195.242 72.1582 194.935 71.0601 194.32L71.5501 192.83C72.4965 193.352 73.5592 193.627 74.6401 193.63C75.0745 193.663 75.5111 193.606 75.9229 193.464C76.3347 193.321 76.7129 193.096 77.0343 192.802C77.3557 192.508 77.6134 192.151 77.7915 191.753C77.9697 191.356 78.0645 190.926 78.0701 190.49C78.0701 188.63 76.8001 187.29 73.9101 187.29C73.2405 187.297 72.5722 187.35 71.9101 187.45L72.8501 180.5H79.7701L79.7601 182.15Z" fill="#2F2E41"/>
<path d="M101.55 182.57L99 183.93L98.62 182.44L101.78 180.75H103.45V195.21H101.56L101.55 182.57Z" fill="#2F2E41"/>
<path d="M134.08 182.57L131.56 183.93L131.18 182.44L134.34 180.75H136V195.21H134.11L134.08 182.57Z" fill="#2F2E41"/>
<path opacity="0.2" d="M22.13 197.7V242.15C22.1326 243.343 22.6076 244.486 23.4509 245.329C24.2943 246.172 25.4373 246.647 26.63 246.65H150.77C151.963 246.65 153.108 246.176 153.952 245.332C154.796 244.488 155.27 243.343 155.27 242.15V231.15C155.27 231.15 149.22 246.15 94.67 240.02C94.67 240 36 240.26 22.13 197.7Z" fill="black"/>
<path d="M167.05 322.42L167.12 321.42C168.47 321.52 169.79 321.57 171.04 321.57C172.29 321.57 173.04 321.51 173.04 321.51L173.11 322.51C173.11 322.51 172.34 322.57 171.02 322.57C169.7 322.57 168.43 322.52 167.05 322.42ZM155.12 320.42L155.39 319.42C157.28 319.94 159.23 320.37 161.2 320.71L161.04 321.71C159.045 321.367 157.07 320.923 155.12 320.38V320.42ZM143.89 315.93L144.37 315.06C146.114 315.999 147.91 316.837 149.75 317.57L149.38 318.5C147.499 317.742 145.665 316.87 143.89 315.89V315.93ZM134.12 308.81L134.81 308.09C136.233 309.461 137.75 310.73 139.35 311.89L138.77 312.7C137.13 311.5 135.576 310.187 134.12 308.77V308.81ZM126.66 299.3L127.53 298.8C128.525 300.503 129.634 302.137 130.85 303.69L130.06 304.31C128.816 302.704 127.68 301.017 126.66 299.26V299.3ZM121.89 288.22L122.89 287.93C123.457 289.821 124.125 291.68 124.89 293.5L123.97 293.9C123.168 292.035 122.473 290.125 121.89 288.18V288.22ZM119.5 276.41L120.5 276.29C120.73 278.29 121.04 280.29 121.42 282.17L120.42 282.36C120 280.41 119.73 278.4 119.5 276.37V276.41ZM118.96 266.41C118.96 265.73 118.96 265.04 118.96 264.34H119.96C119.96 265.03 119.96 265.71 119.96 266.34C119.96 267.66 119.96 268.98 120.04 270.26H119.04C119 269.07 119 267.73 119 266.4L118.96 266.41ZM119.26 258.32C119.41 256.38 119.6 254.32 119.85 252.32L120.85 252.44C120.61 254.44 120.41 256.44 120.27 258.39L119.26 258.32Z" fill="#2F2E41"/>
<path d="M421.79 223.7L426.79 220.55L423.79 215.38L418.17 217.63L414.06 211L418.56 208.64L415.63 203L410.68 205.93L391.1 175.76C393.696 173.007 395.672 169.729 396.895 166.148C398.118 162.567 398.56 158.766 398.19 155C397.06 143 385.81 132 373.76 131.11C369.889 130.821 366.002 131.384 362.373 132.759C358.743 134.135 355.459 136.29 352.752 139.072C350.046 141.854 347.982 145.196 346.706 148.862C345.431 152.528 344.975 156.429 345.37 160.29C346.65 173.23 358.89 184.18 371.89 184.12C374.438 184.113 376.971 183.736 379.41 183L415.72 238C415.952 238.352 416.31 238.602 416.72 238.7L426.46 240.95C426.493 240.96 426.529 240.961 426.563 240.954C426.597 240.948 426.629 240.933 426.656 240.911C426.683 240.89 426.705 240.862 426.72 240.831C426.734 240.799 426.741 240.765 426.74 240.73V231.41C426.739 231.075 426.638 230.747 426.45 230.47L421.79 223.7ZM369.11 157.21C368.356 157.558 367.559 157.803 366.74 157.94C365.474 158.156 364.179 158.121 362.927 157.836C361.675 157.551 360.492 157.022 359.445 156.278C358.398 155.535 357.508 154.593 356.826 153.505C356.144 152.418 355.683 151.206 355.47 149.94C355.168 148.223 355.34 146.456 355.97 144.83C356.538 143.33 357.468 141.993 358.676 140.937C359.884 139.882 361.334 139.14 362.897 138.779C364.461 138.417 366.089 138.447 367.638 138.864C369.187 139.282 370.609 140.075 371.779 141.173C372.948 142.272 373.829 143.641 374.343 145.161C374.857 146.681 374.988 148.304 374.725 149.887C374.462 151.47 373.813 152.963 372.836 154.235C371.858 155.507 370.582 156.519 369.12 157.18L369.11 157.21Z" fill="#0071F2"/>
<path opacity="0.2" d="M421.79 223.7L426.79 220.55L423.79 215.38L418.17 217.63L414.06 211L418.56 208.64L415.63 203L410.68 205.93L391.1 175.76C393.696 173.007 395.672 169.729 396.895 166.148C398.118 162.567 398.56 158.766 398.19 155C397.06 143 385.81 132 373.76 131.11C369.889 130.821 366.002 131.384 362.373 132.759C358.743 134.135 355.459 136.29 352.752 139.072C350.046 141.854 347.982 145.196 346.706 148.862C345.431 152.528 344.975 156.429 345.37 160.29C346.65 173.23 358.89 184.18 371.89 184.12C374.438 184.113 376.971 183.736 379.41 183L415.72 238C415.952 238.352 416.31 238.602 416.72 238.7L426.46 240.95C426.493 240.96 426.529 240.961 426.563 240.954C426.597 240.948 426.629 240.933 426.656 240.911C426.683 240.89 426.705 240.862 426.72 240.831C426.734 240.799 426.741 240.765 426.74 240.73V231.41C426.739 231.075 426.638 230.747 426.45 230.47L421.79 223.7ZM369.11 157.21C368.356 157.558 367.559 157.803 366.74 157.94C365.474 158.156 364.179 158.121 362.927 157.836C361.675 157.551 360.492 157.022 359.445 156.278C358.398 155.535 357.508 154.593 356.826 153.505C356.144 152.418 355.683 151.206 355.47 149.94C355.168 148.223 355.34 146.456 355.97 144.83C356.538 143.33 357.468 141.993 358.676 140.937C359.884 139.882 361.334 139.14 362.897 138.779C364.461 138.417 366.089 138.447 367.638 138.864C369.187 139.282 370.609 140.075 371.779 141.173C372.948 142.272 373.829 143.641 374.343 145.161C374.857 146.681 374.988 148.304 374.725 149.887C374.462 151.47 373.813 152.963 372.836 154.235C371.858 155.507 370.582 156.519 369.12 157.18L369.11 157.21Z" fill="black"/>
<path d="M420.37 223.7L425.37 220.55L422.37 215.38L416.75 217.63L412.64 211L417.14 208.64L414.21 203L409.26 205.93L389.68 175.75C392.273 172.997 394.247 169.721 395.468 166.142C396.69 162.563 397.13 158.764 396.76 155C395.63 143 384.38 132 372.34 131.11C368.468 130.819 364.58 131.381 360.949 132.756C357.319 134.131 354.033 136.286 351.326 139.068C348.618 141.85 346.553 145.192 345.277 148.859C344.001 152.526 343.545 156.428 343.94 160.29C345.22 173.23 357.46 184.18 370.46 184.12C373.014 184.114 375.554 183.736 378 183L414.3 238C414.534 238.35 414.891 238.599 415.3 238.7L425 241C425.034 241.009 425.069 241.01 425.104 241.004C425.138 240.997 425.171 240.982 425.199 240.961C425.227 240.94 425.25 240.913 425.266 240.881C425.281 240.85 425.29 240.815 425.29 240.78V231.46C425.286 231.124 425.181 230.797 424.99 230.52L420.37 223.7ZM367.69 157.21C366.936 157.558 366.139 157.803 365.32 157.94C364.055 158.164 362.758 158.137 361.504 157.859C360.25 157.581 359.063 157.058 358.011 156.32C356.96 155.583 356.064 154.645 355.376 153.56C354.687 152.475 354.22 151.266 354 150C353.698 148.283 353.87 146.516 354.5 144.89C355.068 143.39 355.998 142.053 357.206 140.997C358.414 139.942 359.864 139.2 361.427 138.839C362.991 138.477 364.619 138.507 366.168 138.924C367.717 139.342 369.139 140.135 370.309 141.233C371.478 142.332 372.359 143.701 372.873 145.221C373.387 146.741 373.518 148.364 373.255 149.947C372.992 151.53 372.343 153.023 371.366 154.295C370.388 155.567 369.112 156.579 367.65 157.24L367.69 157.21Z" fill="#0071F2"/>
</svg>
