<svg width="55" height="55" viewBox="0 0 55 55" fill="none" xmlns="http://www.w3.org/2000/svg">
<path fill-rule="evenodd" clip-rule="evenodd" d="M27.4862 0C12.3062 0 0 12.1252 0 27.0833C0 40.8159 10.3744 52.1612 23.8219 53.927V48.4697C23.8219 46.9314 22.8374 45.5474 21.3565 45.0585C13.5974 42.4897 8.0465 35.1826 8.25137 26.627C8.50025 16.2107 17.1119 8.02073 27.6842 8.12635C38.2195 8.23198 46.7266 16.6793 46.7266 27.0847C46.7266 28.0597 46.6496 29.0347 46.5011 29.9975C44.1458 45.2874 23.9346 53.8809 23.8246 53.9283C25.0222 54.0841 26.2446 54.1667 27.4862 54.1667C42.6663 54.1667 54.9725 42.0415 54.9725 27.0833C54.9725 12.1252 42.6663 0 27.4862 0Z" fill="#2B87FE"/>
</svg>
