<svg width="828" height="617" viewBox="0 0 828 617" fill="none" xmlns="http://www.w3.org/2000/svg">
<path d="M827.32 541.82H0.450012V542.23H827.32V541.82Z" fill="#EBEBEB"/>
<path d="M744.46 568.43H689.69V568.84H744.46V568.43Z" fill="#EBEBEB"/>
<path d="M548.2 572.93H533.83V573.34H548.2V572.93Z" fill="#EBEBEB"/>
<path d="M688.04 553.08H656.3V553.49H688.04V553.08Z" fill="#EBEBEB"/>
<path d="M158.63 555.86H87.2V556.27H158.63V555.86Z" fill="#EBEBEB"/>
<path d="M183.83 555.86H173.36V556.27H183.83V555.86Z" fill="#EBEBEB"/>
<path d="M372.78 562.84H217.86V563.25H372.78V562.84Z" fill="#EBEBEB"/>
<path d="M392.38 468.07H73.06C70.5581 468.065 68.1606 467.066 66.3943 465.295C64.628 463.523 63.6374 461.122 63.64 458.62V9.75002C63.6611 7.26372 64.6622 4.88613 66.426 3.13361C68.1897 1.3811 70.5736 0.395193 73.06 0.390015H392.38C394.885 0.390013 397.287 1.38426 399.059 3.15432C400.831 4.92438 401.827 7.32545 401.83 9.83002V458.62C401.83 461.126 400.834 463.53 399.062 465.302C397.29 467.074 394.886 468.07 392.38 468.07ZM73.06 0.720016C70.6731 0.720016 68.3839 1.66823 66.6961 3.35605C65.0082 5.04388 64.06 7.33307 64.06 9.72002V458.62C64.06 461.007 65.0082 463.296 66.6961 464.984C68.3839 466.672 70.6731 467.62 73.06 467.62H392.38C394.767 467.62 397.056 466.672 398.744 464.984C400.432 463.296 401.38 461.007 401.38 458.62V9.75002C401.38 7.36307 400.432 5.07388 398.744 3.38605C397.056 1.69823 394.767 0.750015 392.38 0.750015L73.06 0.720016Z" fill="#EBEBEB"/>
<path d="M750.1 468.07H430.77C428.265 468.065 425.865 467.067 424.094 465.296C422.323 463.525 421.325 461.125 421.32 458.62V9.75002C421.349 7.26099 422.357 4.88342 424.125 3.13173C425.894 1.38005 428.281 0.395104 430.77 0.390015H750.1C752.585 0.397822 754.966 1.38489 756.728 3.13712C758.489 4.88935 759.489 7.26545 759.51 9.75002V458.62C759.51 461.119 758.52 463.517 756.756 465.288C754.993 467.059 752.599 468.059 750.1 468.07ZM430.77 0.720016C428.383 0.720016 426.094 1.66823 424.406 3.35605C422.718 5.04388 421.77 7.33307 421.77 9.72002V458.62C421.77 461.007 422.718 463.296 424.406 464.984C426.094 466.672 428.383 467.62 430.77 467.62H750.1C752.487 467.62 754.776 466.672 756.464 464.984C758.152 463.296 759.1 461.007 759.1 458.62V9.75002C759.1 7.36307 758.152 5.07388 756.464 3.38605C754.776 1.69823 752.487 0.750015 750.1 0.750015L430.77 0.720016Z" fill="#EBEBEB"/>
<path d="M361.71 382.19H152.64V396.94H361.71V382.19Z" fill="#EBEBEB"/>
<path d="M361.71 382.19H270.8V396.94H361.71V382.19Z" fill="#E0E0E0"/>
<path d="M183.53 396.94H152.64V541.82H183.53V396.94Z" fill="#EBEBEB"/>
<path d="M183.53 411.89L152.64 401.37V396.94H183.53V411.89Z" fill="#E0E0E0"/>
<path d="M361.7 396.94H330.81V541.82H361.7V396.94Z" fill="#E0E0E0"/>
<path d="M301.69 396.94H270.8V541.82H301.69V396.94Z" fill="#EBEBEB"/>
<path d="M301.68 411.89L270.8 401.37V396.94H301.68V411.89Z" fill="#E0E0E0"/>
<path d="M243.54 396.94H212.65V541.82H243.54V396.94Z" fill="#E0E0E0"/>
<path d="M381.35 53.59H117.86V277.95H381.35V53.59Z" fill="#EBEBEB"/>
<path d="M384.29 53.57H381.35V277.93H384.29V53.57Z" fill="#E0E0E0"/>
<path d="M371.45 63.49H127.8V268.01H371.45V63.49Z" fill="#F5F5F5"/>
<path d="M246.67 237C261.56 187.39 265.67 114.21 297.34 124.3C329.01 134.39 287.54 242.59 287.54 242.59L246.67 237Z" fill="white"/>
<path d="M272.24 239.44C257.09 167.53 260.91 72.08 213.85 74.26C166.79 76.44 213.85 242.56 213.85 242.56L272.24 239.44Z" fill="white"/>
<path d="M305.5 231.37H202.5C200.396 231.297 198.348 232.055 196.8 233.482C195.252 234.908 194.329 236.887 194.23 238.99C192.13 286.45 199.9 334.91 214.38 382.19H293.28C307.75 334.82 315.52 286.45 313.42 238.99C313.337 236.944 312.467 235.008 310.991 233.588C309.516 232.168 307.548 231.374 305.5 231.37Z" fill="#EBEBEB"/>
<path d="M539.89 78.61H534.09V541.82H539.89V78.61Z" fill="#E0E0E0"/>
<path d="M676.31 78.61H670.51V541.82H676.31V78.61Z" fill="#E0E0E0"/>
<path d="M498.73 78.61H492.93V541.82H498.73V78.61Z" fill="#EBEBEB"/>
<path d="M635.15 78.61H629.35V541.82H635.15V78.61Z" fill="#EBEBEB"/>
<path d="M676.31 75.43H492.93V81.76H676.31V75.43Z" fill="#EBEBEB"/>
<path d="M676.31 188.86H492.93V195.19H676.31V188.86Z" fill="#EBEBEB"/>
<path d="M676.31 302.29H492.93V308.62H676.31V302.29Z" fill="#EBEBEB"/>
<path d="M676.31 415.72H492.93V422.05H676.31V415.72Z" fill="#EBEBEB"/>
<path d="M676.31 529.15H492.93V535.48H676.31V529.15Z" fill="#EBEBEB"/>
<path d="M676.31 75.43H635.15V81.76H676.31V75.43Z" fill="#E0E0E0"/>
<path d="M676.31 188.86H635.15V195.19H676.31V188.86Z" fill="#E0E0E0"/>
<path d="M676.31 302.29H635.15V308.62H676.31V302.29Z" fill="#E0E0E0"/>
<path d="M676.31 415.72H635.15V422.05H676.31V415.72Z" fill="#E0E0E0"/>
<path d="M676.31 529.15H635.15V535.48H676.31V529.15Z" fill="#E0E0E0"/>
<path d="M566.9 114V105.07H544.9V114C544.9 116.799 543.789 119.483 541.811 121.464C539.832 123.444 537.149 124.557 534.35 124.56C531.55 124.56 528.865 125.671 526.883 127.649C524.901 129.627 523.785 132.31 523.78 135.11V188.89H588V135.13C587.995 132.33 586.879 129.647 584.897 127.669C582.915 125.691 580.23 124.58 577.43 124.58C574.631 124.572 571.95 123.453 569.975 121.469C568.001 119.486 566.895 116.799 566.9 114Z" fill="#F0F0F0"/>
<path d="M612.53 265.42H515.92V302.31H612.53V265.42Z" fill="#F0F0F0"/>
<path d="M629.35 265.4H612.53V302.29H629.35V265.4Z" fill="#E6E6E6"/>
<path d="M629.35 281.82H612.53V285.89H629.35V281.82Z" fill="#EBEBEB"/>
<path d="M612.53 281.82H515.92V285.89H612.53V281.82Z" fill="#F5F5F5"/>
<path d="M586.65 463.93H511.19V529.15H586.65V463.93Z" fill="#F0F0F0"/>
<path d="M599.78 463.95H586.65V529.17H599.78V463.95Z" fill="#E6E6E6"/>
<path d="M599.78 492.95H586.65V500.14H599.78V492.95Z" fill="#EBEBEB"/>
<path d="M586.65 492.95H511.19V500.14H586.65V492.95Z" fill="#F5F5F5"/>
<path d="M599.78 485.35H586.65V487.91H599.78V485.35Z" fill="#EBEBEB"/>
<path d="M586.65 485.35H511.19V487.91H586.65V485.35Z" fill="#F5F5F5"/>
<path d="M529.58 349.41H515.92V415.73H529.58V349.41Z" fill="#F0F0F0"/>
<path d="M529.58 373.04H515.92V392.09H529.58V373.04Z" fill="#FAFAFA"/>
<path d="M576.05 349.43H529.58V415.75H576.05V349.43Z" fill="#E6E6E6"/>
<path d="M550.68 340.84H535.25V415.72H550.68V340.84Z" fill="#EBEBEB"/>
<path d="M550.68 364.64H535.25V376.17H550.68V364.64Z" fill="#FAFAFA"/>
<path d="M550.68 383.89H535.25V395.42H550.68V383.89Z" fill="#FAFAFA"/>
<path d="M603.17 340.84H550.7V415.72H603.17V340.84Z" fill="#E0E0E0"/>
<path d="M567.86 349.41H559.54V415.73H567.86V349.41Z" fill="#F0F0F0"/>
<path d="M566.43 357.81H560.97V407.32H566.43V357.81Z" fill="#FAFAFA"/>
<path d="M596.11 349.43H567.85V415.75H596.11V349.43Z" fill="#E6E6E6"/>
<path d="M590.07 345.92H580.68V415.72H590.07V345.92Z" fill="#EBEBEB"/>
<path d="M590.07 368.1H580.68V378.85H590.07V368.1Z" fill="#FAFAFA"/>
<path d="M590.07 386.06H580.68V396.81H590.07V386.06Z" fill="#FAFAFA"/>
<path d="M621.99 345.92H590.07V415.72H621.99V345.92Z" fill="#E0E0E0"/>
<path d="M571.25 265.41C582.61 265.41 591.82 256.201 591.82 244.84C591.82 233.48 582.61 224.27 571.25 224.27C559.89 224.27 550.68 233.48 550.68 244.84C550.68 256.201 559.89 265.41 571.25 265.41Z" fill="#F5F5F5"/>
<path d="M594.02 265.37C601.896 265.37 608.28 258.986 608.28 251.11C608.28 243.234 601.896 236.85 594.02 236.85C586.144 236.85 579.76 243.234 579.76 251.11C579.76 258.986 586.144 265.37 594.02 265.37Z" fill="#EBEBEB"/>
<path d="M413.88 616.5C590.965 616.5 734.52 608.119 734.52 597.78C734.52 587.441 590.965 579.06 413.88 579.06C236.795 579.06 93.24 587.441 93.24 597.78C93.24 608.119 236.795 616.5 413.88 616.5Z" fill="#F5F5F5"/>
<path d="M209 469.54H421.41V579.2C421.41 582.038 420.283 584.759 418.276 586.766C416.269 588.773 413.548 589.9 410.71 589.9H219.71C218.304 589.901 216.912 589.626 215.612 589.088C214.313 588.551 213.132 587.763 212.137 586.77C211.143 585.776 210.354 584.596 209.815 583.297C209.277 581.998 209 580.606 209 579.2V469.54Z" fill="#D1D3D4"/>
<path d="M209 469.54H359.31L340.82 445.87C338.82 443.28 333.76 441.18 329.57 441.18H194.4C190.23 441.18 188.48 443.28 190.51 445.87L209 469.54Z" fill="#D1D3D4"/>
<path opacity="0.2" d="M209 469.54H359.31L340.82 445.87C338.82 443.28 333.76 441.18 329.57 441.18H194.4C190.23 441.18 188.48 443.28 190.51 445.87L209 469.54Z" fill="black"/>
<path d="M421.41 469.54H271.11L289.6 454.11C291.6 452.45 296.66 451.05 300.85 451.05H436C440.18 451.05 441.92 452.42 439.89 454.11L421.41 469.54Z" fill="#D1D3D4"/>
<path opacity="0.2" d="M271.11 469H421.41V578.63C421.41 580.035 421.133 581.427 420.596 582.725C420.058 584.023 419.27 585.202 418.276 586.196C417.282 587.19 416.103 587.978 414.805 588.516C413.507 589.053 412.115 589.33 410.71 589.33H281.81C280.405 589.33 279.013 589.053 277.715 588.516C276.417 587.978 275.238 587.19 274.244 586.196C273.25 585.202 272.462 584.023 271.924 582.725C271.387 581.427 271.11 580.035 271.11 578.63V469Z" fill="white"/>
<path opacity="0.5" d="M227.65 469.54V544.75L232.85 540.65L236.5 544.75L239.68 540.18L242.94 544.75L247.47 541.33L252.46 544.75V469.54H227.65Z" fill="white"/>
<path d="M355.12 364L443.24 253.88L325.92 155.38L248.19 244.6L236.62 266.9C235.512 268.122 234.934 269.734 235.013 271.382C235.091 273.03 235.82 274.579 237.04 275.69L237.39 275.98L343.23 364.86C344.956 366.241 347.139 366.92 349.344 366.761C351.548 366.601 353.611 365.615 355.12 364Z" fill="#D1D3D4"/>
<path opacity="0.5" d="M294.7 282.81L282.01 303.24L287.12 304.35L288.86 309.07L292.25 309.27L293.82 313.32L297.97 314.53L301.16 319.61L313.85 299.19L294.7 282.81Z" fill="white"/>
<path opacity="0.1" d="M439.4 250.52L360.38 338.66L248.14 244.43L325.92 155.25L439.4 250.52Z" fill="black"/>
<path d="M439.4 250.68L360.38 338.82L393.09 341.24L470.89 252.05L439.4 250.68Z" fill="#D1D3D4"/>
<path opacity="0.3" d="M439.4 250.68L360.38 338.82L393.09 341.24L470.89 252.05L439.4 250.68Z" fill="black"/>
<path d="M294.45 154.02L215.42 242.18L248.14 244.6L325.92 155.41L294.45 154.02Z" fill="#D1D3D4"/>
<path opacity="0.4" d="M294.45 154.02L215.42 242.18L248.14 244.6L325.92 155.41L294.45 154.02Z" fill="black"/>
<path opacity="0.1" d="M415.02 277.73L439.35 250.59L325.87 155.32L311.35 190.31L415.02 277.73Z" fill="black"/>
<path opacity="0.2" d="M248.14 244.6L325.92 155.41L311.4 190.4L256.63 251.72L248.14 244.6Z" fill="black"/>
<path d="M503.58 91.81C504.31 100.57 506.47 116.61 511.65 120.32C511.65 120.32 510.43 130.85 491.81 133.55C471.4 136.55 480.56 124.85 480.56 124.85C491.29 120.55 489.79 112.33 486.71 104.85L494.58 95.85C497.61 92.48 503.18 87.32 503.58 91.81Z" fill="#F9B499"/>
<path d="M518.32 124.6C519.97 123.09 516.66 117.08 514.63 116.23C509.3 114 487.52 116.23 479.34 123.23C478.658 124.392 478.245 125.693 478.132 127.036C478.02 128.379 478.21 129.73 478.69 130.99L518.32 124.6Z" fill="#0071F2"/>
<path opacity="0.2" d="M518.32 124.6C519.97 123.09 516.66 117.08 514.63 116.23C509.3 114 487.52 116.23 479.34 123.23C478.658 124.392 478.245 125.693 478.132 127.036C478.02 128.379 478.21 129.73 478.69 130.99L518.32 124.6Z" fill="black"/>
<path d="M510.1 583.7H496.29L494.91 551.75H508.72L510.1 583.7Z" fill="#F9B499"/>
<path d="M607.09 561.88L594.37 566.26L581.17 536.15L593.89 531.77L607.09 561.88Z" fill="#F9B499"/>
<path d="M591.34 563.11L606.23 558.56C606.492 558.479 606.774 558.491 607.029 558.593C607.284 558.695 607.496 558.881 607.63 559.12L613.84 570C613.975 570.233 614.062 570.49 614.095 570.757C614.128 571.024 614.108 571.294 614.034 571.553C613.96 571.812 613.835 572.053 613.666 572.262C613.497 572.471 613.287 572.644 613.05 572.77C612.92 572.85 612.778 572.911 612.63 572.95C607.42 574.45 604.82 574.95 598.31 576.95C594.31 578.17 584.17 582.01 578.46 583.15C572.75 584.29 570.92 578.83 573.14 577.86C583.06 573.47 587.14 568.5 589.49 564.63C589.901 563.915 590.559 563.374 591.34 563.11Z" fill="#0071F2"/>
<path d="M496.39 582.09H511.45C511.723 582.095 511.986 582.19 512.199 582.36C512.413 582.53 512.564 582.765 512.63 583.03L515.36 595.3C515.419 595.557 515.427 595.823 515.383 596.083C515.339 596.342 515.244 596.591 515.104 596.814C514.964 597.037 514.78 597.23 514.565 597.382C514.35 597.534 514.107 597.642 513.85 597.7C513.691 597.719 513.529 597.719 513.37 597.7C507.93 597.62 500.14 597.29 493.24 597.29C485.24 597.29 481.9 597.73 472.52 597.73C466.87 597.73 465.3 592.01 467.66 591.48C478.46 589.12 483.74 588.87 493.06 583.12C494.055 582.479 495.207 582.123 496.39 582.09Z" fill="#0071F2"/>
<path d="M536.49 129.11C540.49 132.8 543.98 136.49 547.59 140.34C551.2 144.19 554.53 148.18 557.77 152.43C561.158 156.748 564.232 161.303 566.97 166.06C568.464 168.682 569.758 171.413 570.84 174.23C571.12 175.01 571.4 175.75 571.63 176.59C571.901 177.444 572.128 178.312 572.31 179.19L572.59 180.56L572.79 182.08C572.98 183.474 572.98 184.886 572.79 186.28C572.412 188.913 571.441 191.427 569.95 193.63C568.858 195.236 567.579 196.706 566.14 198.01C563.828 200.107 561.3 201.954 558.6 203.52C553.841 206.24 548.864 208.558 543.72 210.45C533.956 214.072 523.894 216.836 513.65 218.71L510.76 208.79C519.76 204.91 528.83 200.71 537.22 196.22C541.308 194.086 545.243 191.674 549 189C550.559 187.891 551.994 186.617 553.28 185.2C553.681 184.782 554.018 184.307 554.28 183.79C554.42 183.51 554.28 183.54 554.12 184.14C554 185.25 554.02 184.39 553.76 183.79C553.67 183.51 553.52 183.13 553.38 182.79C553.24 182.45 553.04 182.01 552.86 181.61C551.964 179.806 550.962 178.056 549.86 176.37C547.305 172.579 544.544 168.93 541.59 165.44C538.59 161.83 535.34 158.24 532.05 154.72C528.76 151.2 525.3 147.64 522.13 144.37L536.49 129.11Z" fill="#F9B499"/>
<path d="M514.55 207.22L501.55 211.16L509.92 224.92C509.92 224.92 517.61 221.74 519.31 215.21L514.55 207.22Z" fill="#FFC3BD"/>
<path d="M496.27 216.03L501.4 227.38L509.82 224.93L501.45 211.16L496.27 216.03Z" fill="#FFC3BD"/>
<path d="M506 132.85C504.76 146.08 532.74 166.56 532.74 166.56L559.68 148.12C555.005 139.479 548.165 132.201 539.83 127C524.38 117.14 507.55 116.41 506 132.85Z" fill="#0071F2"/>
<path d="M460.19 131.79C460.19 131.79 448.1 150.35 476.81 249.87L549.81 239.09C548.81 229 536.58 184.99 536.17 136.89C536.136 132.329 534.292 127.968 531.045 124.766C527.797 121.563 523.411 119.781 518.85 119.81C518.59 119.81 518.33 119.81 518.08 119.81C515.96 119.92 513.78 120.07 511.61 120.29C501.197 121.221 490.847 122.75 480.61 124.87C473.635 126.646 466.808 128.959 460.19 131.79Z" fill="#0071F2"/>
<path opacity="0.2" d="M458.4 163.78L458.65 163.5L475.81 165C478.43 176.08 468.87 191.19 463.81 198.2C461.393 186.832 459.587 175.342 458.4 163.78Z" fill="black"/>
<path d="M502.7 246.05C502.7 246.05 514.55 346.85 523.14 386.34C532.55 429.6 579 547.54 579 547.54L602.16 539.54C602.16 539.54 572.39 450.73 564.49 390.26C558.42 343.82 549.77 239.09 549.77 239.09L502.7 246.05Z" fill="#2F2E41"/>
<path d="M573.05 540.14C572.94 540.14 577.8 550.06 577.8 550.06L604.8 541.28L601.62 533.21L573.05 540.14Z" fill="#2F2E41"/>
<path opacity="0.3" d="M509.24 297.76C512.94 325.76 517.69 358.95 521.85 380.14C528 347.67 529.43 306.68 509.24 297.76Z" fill="black"/>
<path d="M476.81 249.87C476.81 249.87 466.98 344.56 468.54 386.64C470.09 430.39 490.54 565.04 490.54 565.04H513.9C513.9 565.04 509.6 432.94 510.59 389.98C511.73 343.13 529.3 242.11 529.3 242.11L476.81 249.87Z" fill="#2F2E41"/>
<path d="M486 555.73C485.9 555.73 487.32 565.42 487.32 565.42H515.75L516.52 556.77L486 555.73Z" fill="#2F2E41"/>
<path d="M472.28 155.05C469.7 159.15 467.08 162.83 464.37 166.62C461.66 170.41 458.81 174.06 455.92 177.7C450.02 185.079 443.629 192.052 436.79 198.57C434.93 200.23 433.23 201.88 431.23 203.38L429.77 204.56L429.05 205.14C428.78 205.35 428.67 205.47 428.12 205.86C426.482 207.03 424.684 207.957 422.78 208.61C419.83 209.617 416.746 210.173 413.63 210.26C410.998 210.352 408.364 210.238 405.75 209.92C396.186 208.662 386.855 206.021 378.05 202.08L380.91 192.16C389.371 193.161 397.892 193.569 406.41 193.38C408.293 193.282 410.17 193.078 412.03 192.77C413.42 192.559 414.77 192.134 416.03 191.51C416.43 191.3 416.65 191.08 416.6 191.03C416.55 190.98 416.81 190.82 416.96 190.67L417.52 190.15L418.63 189.15C420.12 187.83 421.53 186.23 422.98 184.77C425.84 181.69 428.69 178.54 431.38 175.18C434.07 171.82 436.81 168.45 439.45 164.97C442.09 161.49 444.66 157.97 447.24 154.46C449.82 150.95 452.33 147.23 454.72 143.81L472.28 155.05Z" fill="#F9B499"/>
<path d="M481.88 150.66C487.44 168.85 455.18 189.01 455.18 189.01L434.18 162.31C438.91 153.495 444.755 145.324 451.57 138C465.84 122.48 477.65 136.82 481.88 150.66Z" fill="#0071F2"/>
<path d="M385.77 192.77L368.77 189.66L370.56 204.34C370.56 204.34 379.39 209.34 385.79 201.55L385.77 192.77Z" fill="#F9B499"/>
<path d="M362.24 192.97L365.91 203.57L370.54 204.34L368.75 189.66L362.24 192.97Z" fill="#F9B499"/>
<path d="M489 113.33C488.984 112.552 488.887 111.778 488.71 111.02C488.71 111.02 495.85 110.24 499.24 106.36C499.19 106.36 498.18 111.34 489 113.33Z" fill="#F7A48B"/>
<path d="M501.78 72C504.78 85.34 507.27 93 502.62 101.76C495.62 114.81 477.68 113.56 470.72 101.38C464.45 90.38 460.52 70.44 471.83 61.45C474.309 59.4603 477.255 58.1357 480.388 57.6016C483.522 57.0675 486.74 57.3414 489.738 58.3976C492.737 59.4537 495.416 61.2572 497.523 63.6373C499.63 66.0175 501.095 68.8958 501.78 72Z" fill="#F9B499"/>
<path d="M475 85.11L469.92 88.22L470.4 70.85C467.128 70.9902 463.901 70.056 461.21 68.19C463.04 66.44 491.62 56.43 500.53 58.19C501.46 57.81 502.59 56.09 502.59 56.09C502.59 56.09 502.93 58.26 501.43 59.09C502.52 58.88 505.25 59.41 506.01 61.01C504.757 60.6667 503.425 60.744 502.22 61.23C502.22 61.23 512.14 62.73 508.62 76.49C504.62 91.65 505.98 100.37 505.98 100.37C505.98 100.37 498.6 106.07 492.18 105.02C485.31 97.45 475.42 88.38 475 85.11Z" fill="#2F2E41"/>
<path d="M465.25 66.82C457.19 66.82 454.3 62.88 452.25 59.57C458.04 58.96 470.1 55.24 479.04 54.57C487.98 53.9 497.8 55.57 494.84 59.57C491.88 63.57 465.25 66.82 465.25 66.82Z" fill="#2F2E41"/>
<path d="M467 63.23C460.38 62.3 453.93 56.07 458.89 50.1C460.73 54.48 473.12 53.97 481.89 52.1C493.47 49.69 501.49 53.59 497.39 61.48C495.18 65.83 467 63.23 467 63.23Z" fill="#2F2E41"/>
<path d="M482.12 81.16C483.06 84.4253 482.909 87.9083 481.69 91.08C480.03 95.23 476.36 94.39 474.44 90.8C472.79 87.49 471.53 81.49 474.34 78.49C477.15 75.49 480.92 77.24 482.12 81.16Z" fill="#F9B499"/>
</svg>
