<svg width="51" height="50" viewBox="0 0 51 50" fill="none" xmlns="http://www.w3.org/2000/svg">
<circle cx="25" cy="25" r="25" fill="#25D366"/>
<path fill-rule="evenodd" clip-rule="evenodd" d="M17.9722 17.9534H32.0027C32.796 17.9324 33.5718 18.1996 34.1991 18.7098L33.3996 19.2541L24.9611 24.9551L22.7647 23.4561C22.7194 23.4108 22.6655 23.3762 22.6065 23.3546L16.5709 19.2495L15.7758 18.7098C16.3937 18.1813 17.1761 17.9118 17.9722 17.9534ZM15.2224 19.421L15.9647 19.9284L21.7676 23.8905L16.0175 30.1634L15.3937 30.8414C14.9603 30.2059 14.7324 29.4412 14.7436 28.6597L14.7479 21.3305C14.7417 20.661 14.9055 20.0019 15.2224 19.421ZM33.3468 30.7852L27.4825 24.4016L25.2422 25.9237L25.1675 25.9606H25.1324C25.0959 25.9654 25.059 25.9654 25.0225 25.9606C24.9861 25.9654 24.9492 25.9654 24.9127 25.9606H24.8776L24.7722 25.9237L22.5494 24.4108L16.6543 30.8036L16.0218 31.4909C16.6019 31.8827 17.2829 32.0775 17.9721 32.049H32.029C32.7156 32.0536 33.3887 31.8485 33.9662 31.4586L33.3468 30.7852ZM35.2533 21.3438V28.6591C35.2827 29.439 35.0597 30.2064 34.6207 30.8362L33.9925 30.1489L28.2468 23.8714L34.0453 19.9277L34.792 19.425C35.1131 20.0069 35.2729 20.6715 35.2533 21.3438Z" fill="white"/>
<circle cx="25.1221" cy="25" r="25" fill="black"/>
<path d="M32.2806 22.9492H24.1401C23.141 22.9492 22.3311 23.7104 22.3311 24.6493V32.2996C22.3311 33.2385 23.141 33.9997 24.1401 33.9997H32.2806C33.2797 33.9997 34.0896 33.2385 34.0896 32.2996V24.6493C34.0896 23.7104 33.2797 22.9492 32.2806 22.9492Z" stroke="white" stroke-width="2" stroke-linecap="round" stroke-linejoin="round"/>
<path d="M18.7135 28.0504H17.809C17.3292 28.0504 16.8691 27.8713 16.5298 27.5525C16.1906 27.2337 16 26.8013 16 26.3504V18.7001C16 18.2492 16.1906 17.8168 16.5298 17.4979C16.8691 17.1791 17.3292 17 17.809 17H25.9495C26.4293 17 26.8895 17.1791 27.2287 17.4979C27.568 17.8168 27.7586 18.2492 27.7586 18.7001V19.5501" stroke="white" stroke-width="2" stroke-linecap="round" stroke-linejoin="round"/>
</svg>
