<svg width="27" height="25" viewBox="0 0 27 25" fill="none" xmlns="http://www.w3.org/2000/svg">
<path d="M22.6809 9.1875H11.974C10.66 9.1875 9.59473 10.1886 9.59473 11.4235V21.4856C9.59473 22.7206 10.66 23.7217 11.974 23.7217H22.6809C23.995 23.7217 25.0602 22.7206 25.0602 21.4856V11.4235C25.0602 10.1886 23.995 9.1875 22.6809 9.1875Z" stroke="#222222" stroke-width="2" stroke-linecap="round" stroke-linejoin="round"/>
<path d="M4.83654 15.8955H3.64689C3.01586 15.8955 2.41067 15.6599 1.96446 15.2406C1.51825 14.8212 1.26758 14.2525 1.26758 13.6595V3.59735C1.26758 3.00432 1.51825 2.43558 1.96446 2.01624C2.41067 1.59691 3.01586 1.36133 3.64689 1.36133H14.3538C14.9848 1.36133 15.59 1.59691 16.0362 2.01624C16.4824 2.43558 16.7331 3.00432 16.7331 3.59735V4.71537" stroke="#222222" stroke-width="2" stroke-linecap="round" stroke-linejoin="round"/>
</svg>
