<svg width="69" height="69" viewBox="0 0 69 69" fill="none" xmlns="http://www.w3.org/2000/svg">
<circle cx="34.5898" cy="34.4599" r="33.5986" fill="#25D366"/>
<path fill-rule="evenodd" clip-rule="evenodd" d="M25.1454 24.99H44.0016C45.0677 24.9617 46.1103 25.3209 46.9534 26.0066L45.8789 26.7381L34.5381 34.3999L31.5862 32.3852C31.5254 32.3244 31.453 32.2779 31.3737 32.2489L23.2621 26.7319L22.1936 26.0066C23.0241 25.2963 24.0756 24.9341 25.1454 24.99ZM21.4497 26.9615L22.4474 27.6433L30.2461 32.9682L22.5182 41.3986L21.6799 42.3098C21.0975 41.4558 20.7912 40.4281 20.8062 39.3778L20.8121 29.5278C20.8038 28.628 21.0238 27.7422 21.4497 26.9615ZM45.8081 42.235L37.9267 33.6558L34.9159 35.7014L34.8155 35.751H34.7683C34.7193 35.7575 34.6697 35.7575 34.6207 35.751C34.5717 35.7575 34.5221 35.7575 34.4731 35.751H34.4259L34.2842 35.7014L31.2969 33.6682L23.3743 42.2598L22.5241 43.1834C23.3039 43.71 24.219 43.9718 25.1454 43.9335H44.037C44.9597 43.9397 45.8643 43.664 46.6405 43.14L45.8081 42.235ZM48.3702 29.5461V39.3775C48.4098 40.4256 48.1101 41.4569 47.5201 42.3033L46.6759 41.3797L38.9539 32.943L46.7467 27.643L47.7503 26.9673C48.1819 27.7494 48.3966 28.6426 48.3702 29.5461Z" fill="white"/>
</svg>
