<svg width="69" height="69" viewBox="0 0 69 69" fill="none" xmlns="http://www.w3.org/2000/svg">
<circle cx="34.4403" cy="34.4599" r="33.5986" fill="url(#paint0_linear_2118_89)"/>
<path fill-rule="evenodd" clip-rule="evenodd" d="M40.36 19.8145H28.5209C23.7094 19.8145 19.7949 23.7289 19.7949 28.5404V40.3795C19.7949 45.1911 23.7094 49.1055 28.5209 49.1055H40.36C45.1715 49.1055 49.086 45.1911 49.086 40.3795V28.5404C49.0859 23.7289 45.1715 19.8145 40.36 19.8145ZM46.1393 40.3792C46.1393 43.571 43.5518 46.1585 40.36 46.1585H28.5209C25.3291 46.1585 22.7416 43.571 22.7416 40.3792V28.5401C22.7416 25.3482 25.3291 22.7608 28.5209 22.7608H40.36C43.5518 22.7608 46.1393 25.3482 46.1393 28.5401V40.3792ZM26.8648 34.4597C26.8648 30.2825 30.2632 26.8841 34.4405 26.8841C38.6177 26.8841 42.0162 30.2825 42.0162 34.4597C42.0162 38.637 38.6177 42.0354 34.4405 42.0354C30.2632 42.0354 26.8648 38.6369 26.8648 34.4597ZM34.4405 39.0892C31.8839 39.0892 29.8114 37.0168 29.8114 34.4602C29.8114 31.9036 31.884 29.8312 34.4405 29.8312C36.997 29.8312 39.0695 31.9036 39.0695 34.4602C39.0695 37.0167 36.997 39.0892 34.4405 39.0892ZM42.0309 28.7563C43.0334 28.7563 43.8462 27.9436 43.8462 26.941C43.8462 25.9385 43.0334 25.1257 42.0309 25.1257C41.0283 25.1257 40.2156 25.9385 40.2156 26.941C40.2156 27.9436 41.0283 28.7563 42.0309 28.7563Z" fill="white"/>
<defs>
<linearGradient id="paint0_linear_2118_89" x1="1.0663" y1="0.749075" x2="0.841798" y2="67.9462" gradientUnits="userSpaceOnUse">
<stop stop-color="#7024C4"/>
<stop offset="0.328125" stop-color="#C21975"/>
<stop offset="0.702206" stop-color="#C74C4D"/>
<stop offset="1" stop-color="#E09B3D"/>
</linearGradient>
</defs>
</svg>
