<svg width="68" height="69" viewBox="0 0 68 69" fill="none" xmlns="http://www.w3.org/2000/svg">
<circle cx="33.8964" cy="34.4599" r="33.5986" fill="#007AB7"/>
<path fill-rule="evenodd" clip-rule="evenodd" d="M27.2285 29.5483H22.2255V45.6607H27.2285V29.5483ZM27.6376 24.4449C27.6376 22.843 26.3358 21.5391 24.7363 21.5391C23.1275 21.5391 21.835 22.843 21.835 24.4449C21.835 26.0468 23.1275 27.3507 24.7363 27.3507C26.3358 27.3507 27.6376 26.0468 27.6376 24.4449ZM35.1606 29.5479H30.3809V45.6603H35.3745V37.6879C35.3745 35.5923 35.7651 33.5527 38.3689 33.5527C40.9354 33.5527 40.9633 35.9556 40.9633 37.8276V45.6603H45.957V36.831C45.957 32.4909 45.0178 29.1567 39.959 29.1567C37.5226 29.1567 35.8953 30.4885 35.2257 31.7552H35.1606V29.5479Z" fill="white"/>
</svg>
