<svg width="68" height="68" viewBox="0 0 68 68" fill="none" xmlns="http://www.w3.org/2000/svg">
<circle cx="33.5986" cy="33.5986" r="33.5986" fill="#2AA3EF"/>
<path fill-rule="evenodd" clip-rule="evenodd" d="M47.3825 25.0497C46.3688 25.4993 45.2773 25.8033 44.134 25.9409C45.3017 25.2401 46.1986 24.1329 46.6202 22.8128C45.5271 23.4609 44.3172 23.9313 43.0279 24.1841C41.9964 23.0849 40.527 22.3984 38.9003 22.3984C35.7766 22.3984 33.2433 24.9297 33.2433 28.053C33.2433 28.4978 33.2952 28.9282 33.3909 29.3426C28.6908 29.1074 24.5243 26.8546 21.7347 23.4337C21.2465 24.2689 20.9692 25.2401 20.9692 26.2769C20.9692 28.2386 21.9683 29.9699 23.4847 30.9827C22.557 30.9539 21.6844 30.6995 20.9238 30.2755C20.9238 30.2995 20.9238 30.3235 20.9238 30.3475C20.9238 33.0867 22.8716 35.3716 25.4601 35.8916C24.9849 36.0212 24.487 36.09 23.9696 36.09C23.6063 36.09 23.2511 36.0548 22.9057 35.9876C23.6258 38.2341 25.7147 39.8693 28.1896 39.9157C26.2532 41.431 23.8139 42.335 21.1638 42.335C20.7081 42.335 20.2572 42.3094 19.8145 42.2566C22.317 43.8614 25.2898 44.7975 28.4848 44.7975C38.8873 44.7975 44.5767 36.1812 44.5767 28.709C44.5767 28.4626 44.5702 28.221 44.5605 27.9778C45.665 27.181 46.6251 26.1841 47.3825 25.0513V25.0497Z" fill="white"/>
</svg>
